<svg width="70" height="70" viewBox="0 0 70 70" fill="none" xmlns="http://www.w3.org/2000/svg">
<g filter="url(#filter0_d_104_406)">
<mask id="path-1-inside-1_104_406" fill="white">
<path d="M7 16C7 7.71573 13.7157 1 22 1H66C66.5523 1 67 1.44772 67 2V46C67 54.2843 60.2843 61 52 61H8C7.44771 61 7 60.5523 7 60V16Z"/>
</mask>
<path d="M7 16C7 7.71573 13.7157 1 22 1H66C66.5523 1 67 1.44772 67 2V46C67 54.2843 60.2843 61 52 61H8C7.44771 61 7 60.5523 7 60V16Z" fill="url(#paint0_linear_104_406)"/>
<path d="M7 16C7 7.71573 13.7157 1 22 1H66C66.5523 1 67 1.44772 67 2V46C67 54.2843 60.2843 61 52 61H8C7.44771 61 7 60.5523 7 60V16Z" stroke="url(#paint1_linear_104_406)" stroke-width="4" mask="url(#path-1-inside-1_104_406)"/>
</g>
<path d="M32.775 45.3281C34.9081 45.3281 36.6374 43.5989 36.6374 41.4657C36.6374 39.3326 34.9081 37.6033 32.775 37.6033C30.6419 37.6033 28.9126 39.3326 28.9126 41.4657C28.9126 43.5989 30.6419 45.3281 32.775 45.3281Z" stroke="#152030" stroke-linecap="round" stroke-linejoin="round"/>
<path d="M32.9749 33.6031C32.7175 31.132 35.1216 28.0673 38.6887 26.6039C44.2595 24.3186 46.0883 23.4466 46.0883 20.5758C46.0883 18.5196 44.8881 16.8906 41.3742 16.8906C37.8604 16.8906 28.947 22.5468 32.9749 33.6031Z" stroke="#152030" stroke-linecap="round" stroke-linejoin="round"/>
<path d="M36.5244 21.1402C37.853 19.5973 39.3529 18.6756 42.3957 18.5152M32.2967 39.2811C31.2103 39.4583 30.3039 40.2167 30.2397 41.4096" stroke="#152030" stroke-linecap="round" stroke-linejoin="round"/>
<defs>
<filter id="filter0_d_104_406" x="0" y="0" width="70" height="70" filterUnits="userSpaceOnUse" color-interpolation-filters="sRGB">
<feFlood flood-opacity="0" result="BackgroundImageFix"/>
<feColorMatrix in="SourceAlpha" type="matrix" values="0 0 0 0 0 0 0 0 0 0 0 0 0 0 0 0 0 0 127 0" result="hardAlpha"/>
<feMorphology radius="1" operator="dilate" in="SourceAlpha" result="effect1_dropShadow_104_406"/>
<feOffset dx="-2" dy="4"/>
<feGaussianBlur stdDeviation="2"/>
<feComposite in2="hardAlpha" operator="out"/>
<feColorMatrix type="matrix" values="0 0 0 0 0 0 0 0 0 0 0 0 0 0 0 0 0 0 0.25 0"/>
<feBlend mode="normal" in2="BackgroundImageFix" result="effect1_dropShadow_104_406"/>
<feBlend mode="normal" in="SourceGraphic" in2="effect1_dropShadow_104_406" result="shape"/>
</filter>
<linearGradient id="paint0_linear_104_406" x1="68.1951" y1="-1.00102" x2="14.2404" y2="43.8505" gradientUnits="userSpaceOnUse">
<stop stop-color="#F5F5F5"/>
<stop offset="1" stop-color="#AE8E73"/>
</linearGradient>
<linearGradient id="paint1_linear_104_406" x1="68.1951" y1="-1.00102" x2="14.2404" y2="43.8505" gradientUnits="userSpaceOnUse">
<stop stop-color="#F5F5F5"/>
<stop offset="1" stop-color="#AE8E73"/>
</linearGradient>
</defs>
</svg>
