<svg width="83" height="80" viewBox="0 0 83 80" fill="none" xmlns="http://www.w3.org/2000/svg">
<path d="M0 0.999999C0 0.447714 0.447715 0 1 0H62.4282C73.4739 0 82.4282 8.95431 82.4282 20V79C82.4282 79.5523 81.9804 80 81.4282 80H20C8.95429 80 0 71.0457 0 60V0.999999Z" fill="url(#paint0_linear_84_155)"/>
<path d="M62.875 56.0156H59.3594V40.6192L60.4844 41.7442C60.7049 41.9608 61.0021 42.0816 61.3112 42.0802C61.6204 42.0788 61.9164 41.9552 62.1349 41.7365C62.3534 41.5177 62.4766 41.2215 62.4776 40.9124C62.4787 40.6032 62.3576 40.3062 62.1406 40.086L42.9336 20.877C42.6797 20.623 42.3782 20.4216 42.0465 20.2842C41.7147 20.1467 41.3591 20.076 41 20.076C40.6409 20.076 40.2853 20.1467 39.9535 20.2842C39.6218 20.4216 39.3203 20.623 39.0664 20.877L19.8594 40.086C19.6424 40.3062 19.5213 40.6032 19.5224 40.9124C19.5234 41.2215 19.6466 41.5177 19.8651 41.7365C20.0836 41.9552 20.3796 42.0788 20.6888 42.0802C20.9979 42.0816 21.2951 41.9608 21.5156 41.7442L22.6406 40.6192V56.0156H19.125C18.8142 56.0156 18.5161 56.1391 18.2964 56.3589C18.0766 56.5786 17.9531 56.8767 17.9531 57.1875C17.9531 57.4983 18.0766 57.7964 18.2964 58.0162C18.5161 58.2359 18.8142 58.3594 19.125 58.3594H62.875C63.1858 58.3594 63.4839 58.2359 63.7036 58.0162C63.9234 57.7964 64.0469 57.4983 64.0469 57.1875C64.0469 56.8767 63.9234 56.5786 63.7036 56.3589C63.4839 56.1391 63.1858 56.0156 62.875 56.0156ZM24.9844 38.2754L40.7227 22.5352C40.759 22.4986 40.8022 22.4695 40.8498 22.4497C40.8974 22.4298 40.9484 22.4196 41 22.4196C41.0516 22.4196 41.1026 22.4298 41.1502 22.4497C41.1978 22.4695 41.241 22.4986 41.2773 22.5352L57.0156 38.2754V56.0156H46.8594V44.6875C46.8594 44.3767 46.7359 44.0786 46.5161 43.8589C46.2964 43.6391 45.9983 43.5156 45.6875 43.5156H36.3125C36.0017 43.5156 35.7036 43.6391 35.4839 43.8589C35.2641 44.0786 35.1406 44.3767 35.1406 44.6875V56.0156H24.9844V38.2754ZM44.5156 56.0156H37.4844V45.8594H44.5156V56.0156Z" fill="#152030"/>
<defs>
<linearGradient id="paint0_linear_84_155" x1="0" y1="0" x2="57.7859" y2="94.9907" gradientUnits="userSpaceOnUse">
<stop stop-color="#F5F5F5"/>
<stop offset="1" stop-color="#AE8E73"/>
</linearGradient>
</defs>
</svg>
