<svg width="61" height="60" viewBox="0 0 61 60" fill="none" xmlns="http://www.w3.org/2000/svg">
<path d="M0.200195 0.999999C0.200195 0.447714 0.647911 0 1.2002 0H45.2002C53.4845 0 60.2002 6.71573 60.2002 15V59C60.2002 59.5523 59.7525 60 59.2002 60H15.2002C6.91592 60 0.200195 53.2843 0.200195 45V0.999999Z" fill="#2B3745"/>
<path d="M46.3033 44.2704H43.5522L43.7393 30.7822L44.6298 32.09C44.7842 32.2609 44.9922 32.3562 45.2086 32.355C45.425 32.3539 45.6323 32.2565 45.7852 32.084C45.9381 31.9114 46.0244 31.6778 46.0251 31.434C46.0259 31.1902 45.9411 30.9559 45.7892 30.7822L32.3443 15.6317C32.1665 15.4315 31.9555 15.2726 31.7233 15.1642C31.4911 15.0558 31.2421 15 30.9908 15C30.7394 15 30.4905 15.0558 30.2582 15.1642C30.026 15.2726 29.815 15.4315 29.6372 15.6317L16.1923 30.7822C16.0405 30.9559 15.9557 31.1902 15.9564 31.434C15.9572 31.6778 16.0434 31.9114 16.1963 32.084C16.3493 32.2565 16.5229 32.4196 16.7393 32.4208C16.9302 32.1497 17.0849 32.0917 17.2393 31.9208L18.1392 30.7822V44.2704H15.4958C15.2782 44.2704 14.995 44.4208 14.9998 44.2704C14.846 44.4438 15.0983 43.9208 14.9998 44.2704C14.9998 44.5156 14.9444 44.7506 15.0982 44.924C15.2521 45.0973 15.4607 45.1947 15.6783 45.1947H46.3033C46.5208 45.1947 46.7295 45.0973 46.8833 44.924C47.0371 44.7506 46.8833 44.4208 46.7393 44.2704C46.7393 44.0253 46.7709 44.4208 46.7393 44.2704C46.4881 44.2704 46.5208 44.2704 46.3033 44.2704ZM19.2393 29.4208L30.7966 16.9396C30.822 16.9107 30.8523 16.8878 30.8856 16.8722C30.9189 16.8565 30.9547 16.8485 30.9908 16.8485C31.0269 16.8485 31.0626 16.8565 31.0959 16.8722C31.1292 16.8878 31.1595 16.9107 31.1849 16.9396L42.7393 29.4208L42.4357 44.2704H35.0923V34.4115C35.0923 34.1663 35.0059 33.9313 34.8521 33.7579C34.6982 33.5846 34.4896 33.4872 34.272 33.4872H27.7095C27.492 33.4872 27.2833 33.5846 27.1295 33.7579C26.9756 33.9313 26.8892 34.1663 26.8892 34.4115V44.2704H19.2393V29.4208ZM33.9382 44.2704H28.0251V34.4208L33.9382 34.4115V44.2704Z" fill="url(#paint0_linear_104_459)"/>
<defs>
<linearGradient id="paint0_linear_104_459" x1="14.9487" y1="15" x2="36.4722" y2="51.3903" gradientUnits="userSpaceOnUse">
<stop stop-color="#F5F5F5"/>
<stop offset="1" stop-color="#AE8E73"/>
</linearGradient>
</defs>
</svg>
