<svg width="80" height="80" viewBox="0 0 80 80" fill="none" xmlns="http://www.w3.org/2000/svg">
<path d="M0 20C0 8.95431 8.95431 0 20 0H79C79.5523 0 80 0.447715 80 1V60C80 71.0457 71.0457 80 60 80H0.999999C0.447714 80 0 79.5523 0 79V20Z" fill="url(#paint0_linear_84_74)"/>
<path d="M25.3765 33.637C25.3765 31.2275 27.502 30.3658 28.5648 30.3658C30.6775 30.3658 31.753 31.9239 31.753 33.637C31.753 37.6316 28.8985 39.665 25.3765 39.665C21.8546 39.665 19 36.4268 19 32.4323C19 28.4377 21.8546 25.1995 25.3765 25.1995M25.3765 25.1995H55.1336M25.3765 25.1995C25.3765 22.2754 25.3765 20.8144 26.3117 19.9093C27.2448 19 28.7476 19 31.753 19H48.7571C51.7647 19 53.2674 19 54.1984 19.9093C55.1336 20.8165 55.1336 22.2775 55.1336 25.1995M55.1336 25.1995C58.6556 25.1995 61.5101 28.4377 61.5101 32.4323C61.5101 36.4268 58.6556 39.665 55.1336 39.665C51.6116 39.665 48.7571 37.6316 48.7571 33.637C48.7571 31.9218 49.8326 30.3658 51.9453 30.3658C53.0081 30.3658 55.1336 31.2275 55.1336 33.637M42.3806 33.4655H38.1296M34.9413 54.1305V45.8645M45.5688 54.1305V45.8645M21.1255 56.197C21.1255 55.649 21.3494 55.1234 21.7481 54.7358C22.1467 54.3483 22.6873 54.1305 23.251 54.1305H57.2591C57.8228 54.1305 58.3635 54.3483 58.7621 54.7358C59.1607 55.1234 59.3846 55.649 59.3846 56.197V58.2635C59.3846 58.8116 59.1607 59.3372 58.7621 59.7248C58.3635 60.1123 57.8228 60.3301 57.2591 60.3301H23.251C22.6873 60.3301 22.1467 60.1123 21.7481 59.7248C21.3494 59.3372 21.1255 58.8116 21.1255 58.2635V56.197Z" stroke="#152030" stroke-width="2" stroke-linecap="round" stroke-linejoin="round"/>
<path d="M25.3123 39.665V54.1306H55.0693V39.665" stroke="#152030" stroke-width="2" stroke-linecap="round" stroke-linejoin="round"/>
<defs>
<linearGradient id="paint0_linear_84_74" x1="81.5934" y1="-2.66803" x2="9.6539" y2="57.134" gradientUnits="userSpaceOnUse">
<stop stop-color="#F5F5F5"/>
<stop offset="1" stop-color="#AE8E73"/>
</linearGradient>
</defs>
</svg>
