<svg width="60" height="60" viewBox="0 0 60 60" fill="none" xmlns="http://www.w3.org/2000/svg">
<path d="M0 15C0 6.71573 6.71573 0 15 0H59C59.5523 0 60 0.447715 60 1V45C60 53.2843 53.2843 60 45 60H0.999999C0.447714 60 0 59.5523 0 59V15Z" fill="url(#paint0_linear_104_398)"/>
<path d="M18.25 25.0512C18.25 23.0673 20 22.3578 20.875 22.3578C22.6145 22.3578 23.5 23.6407 23.5 25.0512C23.5 28.34 21.1497 30.0142 18.25 30.0142C15.3503 30.0142 13 27.3481 13 24.0592C13 20.7704 15.3503 18.1043 18.25 18.1043M18.25 18.1043H42.75M18.25 18.1043C18.25 15.6968 18.25 14.4938 19.02 13.7486C19.7883 13 21.0255 13 23.5 13H37.5C39.9762 13 41.2135 13 41.98 13.7486C42.75 14.4955 42.75 15.6985 42.75 18.1043M42.75 18.1043C45.6497 18.1043 48 20.7704 48 24.0592C48 27.3481 45.6497 30.0142 42.75 30.0142C39.8503 30.0142 37.5 28.34 37.5 25.0512C37.5 23.639 38.3855 22.3578 40.125 22.3578C41 22.3578 42.75 23.0673 42.75 25.0512M32.25 24.9099H28.75M26.125 41.9241V35.1185M34.875 41.9241V35.1185M14.75 43.6256C14.75 43.1743 14.9344 42.7416 15.2626 42.4225C15.5908 42.1034 16.0359 41.9241 16.5 41.9241H44.5C44.9641 41.9241 45.4092 42.1034 45.7374 42.4225C46.0656 42.7416 46.25 43.1743 46.25 43.6256V45.327C46.25 45.7782 46.0656 46.211 45.7374 46.5301C45.4092 46.8491 44.9641 47.0284 44.5 47.0284H16.5C16.0359 47.0284 15.5908 46.8491 15.2626 46.5301C14.9344 46.211 14.75 45.7782 14.75 45.327V43.6256Z" stroke="#152030" stroke-linecap="round" stroke-linejoin="round"/>
<path d="M18.1968 30.0142V41.9242H42.6968V30.0142" stroke="#152030" stroke-linecap="round" stroke-linejoin="round"/>
<defs>
<linearGradient id="paint0_linear_104_398" x1="61.1951" y1="-2.00102" x2="7.24043" y2="42.8505" gradientUnits="userSpaceOnUse">
<stop stop-color="#F5F5F5"/>
<stop offset="1" stop-color="#AE8E73"/>
</linearGradient>
</defs>
</svg>
