<svg width="60" height="60" viewBox="0 0 60 60" fill="none" xmlns="http://www.w3.org/2000/svg">
<mask id="path-1-inside-1_118_364" fill="white">
<path d="M0 15C0 6.71573 6.71573 0 15 0H59C59.5523 0 60 0.447715 60 1V45C60 53.2843 53.2843 60 45 60H0.999999C0.447714 60 0 59.5523 0 59V15Z"/>
</mask>
<path d="M0 15C0 6.71573 6.71573 0 15 0H59C59.5523 0 60 0.447715 60 1V45C60 53.2843 53.2843 60 45 60H0.999999C0.447714 60 0 59.5523 0 59V15Z" fill="#2B3745" stroke="#2B3745" stroke-width="4" mask="url(#path-1-inside-1_118_364)"/>
<path d="M25.7755 44.3281C27.9086 44.3281 29.6379 42.5989 29.6379 40.4657C29.6379 38.3326 27.9086 36.6033 25.7755 36.6033C23.6423 36.6033 21.9131 38.3326 21.9131 40.4657C21.9131 42.5989 23.6423 44.3281 25.7755 44.3281Z" stroke="url(#paint0_linear_118_364)" stroke-linecap="round" stroke-linejoin="round"/>
<path d="M25.9744 32.6031C25.7171 30.132 28.1211 27.0673 31.6882 25.6039C37.259 23.3186 39.0878 22.4466 39.0878 19.5758C39.0878 17.5196 37.8876 15.8906 34.3737 15.8906C30.8599 15.8906 21.9465 21.5468 25.9744 32.6031Z" stroke="url(#paint1_linear_118_364)" stroke-linecap="round" stroke-linejoin="round"/>
<path d="M29.5239 20.1402C30.8525 18.5973 32.3524 17.6756 35.3952 17.5152M25.2962 38.2811C24.2098 38.4583 23.3034 39.2167 23.2393 40.4096" stroke="url(#paint2_linear_118_364)" stroke-linecap="round" stroke-linejoin="round"/>
<defs>
<linearGradient id="paint0_linear_118_364" x1="29.7917" y1="36.3457" x2="22.8453" y2="42.1202" gradientUnits="userSpaceOnUse">
<stop stop-color="#F5F5F5"/>
<stop offset="1" stop-color="#AE8E73"/>
</linearGradient>
<linearGradient id="paint1_linear_118_364" x1="39.3694" y1="15.3333" x2="24.9844" y2="25.4488" gradientUnits="userSpaceOnUse">
<stop stop-color="#F5F5F5"/>
<stop offset="1" stop-color="#AE8E73"/>
</linearGradient>
<linearGradient id="paint2_linear_118_364" x1="35.6373" y1="16.7517" x2="20.1663" y2="23.5802" gradientUnits="userSpaceOnUse">
<stop stop-color="#F5F5F5"/>
<stop offset="1" stop-color="#AE8E73"/>
</linearGradient>
</defs>
</svg>
