<svg width="90" height="90" viewBox="0 0 90 90" fill="none" xmlns="http://www.w3.org/2000/svg">
<g filter="url(#filter0_d_84_84)">
<mask id="path-1-inside-1_84_84" fill="white">
<path d="M7 21C7 9.95431 15.9543 1 27 1H86C86.5523 1 87 1.44772 87 2V61C87 72.0457 78.0457 81 67 81H8C7.44771 81 7 80.5523 7 80V21Z"/>
</mask>
<path d="M7 21C7 9.95431 15.9543 1 27 1H86C86.5523 1 87 1.44772 87 2V61C87 72.0457 78.0457 81 67 81H8C7.44771 81 7 80.5523 7 80V21Z" fill="#2B3745"/>
<path d="M7 21C7 9.95431 15.9543 1 27 1H86C86.5523 1 87 1.44772 87 2V61C87 72.0457 78.0457 81 67 81H8C7.44771 81 7 80.5523 7 80V21Z" stroke="#2B3745" stroke-width="4" mask="url(#path-1-inside-1_84_84)"/>
</g>
<path d="M42.2499 61.3125C45.2972 61.3125 47.7676 58.8422 47.7676 55.7948C47.7676 52.7475 45.2972 50.2771 42.2499 50.2771C39.2025 50.2771 36.7322 52.7475 36.7322 55.7948C36.7322 58.8422 39.2025 61.3125 42.2499 61.3125Z" stroke="url(#paint0_linear_84_84)" stroke-width="2" stroke-linecap="round" stroke-linejoin="round"/>
<path d="M42.5355 44.5625C42.1678 41.0323 45.6021 36.6542 50.698 34.5635C58.6563 31.299 61.2688 30.0531 61.2688 25.9521C61.2688 23.0146 59.5542 20.6875 54.5344 20.6875C49.5147 20.6875 36.7813 28.7677 42.5355 44.5625Z" stroke="url(#paint1_linear_84_84)" stroke-width="2" stroke-linecap="round" stroke-linejoin="round"/>
<path d="M47.6063 26.7584C49.5042 24.5542 51.6469 23.2375 55.9938 23.0084M41.5667 52.674C40.0146 52.9271 38.7198 54.0104 38.6282 55.7146" stroke="url(#paint2_linear_84_84)" stroke-width="2" stroke-linecap="round" stroke-linejoin="round"/>
<defs>
<filter id="filter0_d_84_84" x="0" y="0" width="90" height="90" filterUnits="userSpaceOnUse" color-interpolation-filters="sRGB">
<feFlood flood-opacity="0" result="BackgroundImageFix"/>
<feColorMatrix in="SourceAlpha" type="matrix" values="0 0 0 0 0 0 0 0 0 0 0 0 0 0 0 0 0 0 127 0" result="hardAlpha"/>
<feMorphology radius="1" operator="dilate" in="SourceAlpha" result="effect1_dropShadow_84_84"/>
<feOffset dx="-2" dy="4"/>
<feGaussianBlur stdDeviation="2"/>
<feComposite in2="hardAlpha" operator="out"/>
<feColorMatrix type="matrix" values="0 0 0 0 0 0 0 0 0 0 0 0 0 0 0 0 0 0 0.25 0"/>
<feBlend mode="normal" in2="BackgroundImageFix" result="effect1_dropShadow_84_84"/>
<feBlend mode="normal" in="SourceGraphic" in2="effect1_dropShadow_84_84" result="shape"/>
</filter>
<linearGradient id="paint0_linear_84_84" x1="47.9874" y1="49.9091" x2="38.0639" y2="58.1583" gradientUnits="userSpaceOnUse">
<stop stop-color="#F5F5F5"/>
<stop offset="1" stop-color="#AE8E73"/>
</linearGradient>
<linearGradient id="paint1_linear_84_84" x1="61.6711" y1="19.8913" x2="41.1211" y2="34.3421" gradientUnits="userSpaceOnUse">
<stop stop-color="#F5F5F5"/>
<stop offset="1" stop-color="#AE8E73"/>
</linearGradient>
<linearGradient id="paint2_linear_84_84" x1="56.3397" y1="21.9176" x2="34.2383" y2="31.6726" gradientUnits="userSpaceOnUse">
<stop stop-color="#F5F5F5"/>
<stop offset="1" stop-color="#AE8E73"/>
</linearGradient>
</defs>
</svg>
