<svg width="60" height="60" viewBox="0 0 60 60" fill="none" xmlns="http://www.w3.org/2000/svg">
<path d="M0 15C0 6.71573 6.71573 0 15 0H59C59.5523 0 60 0.447715 60 1V45C60 53.2843 53.2843 60 45 60H0.999999C0.447714 60 0 59.5523 0 59V15Z" fill="#2B3745"/>
<path d="M39.25 16.375C40.4103 16.375 41.5231 16.8359 42.3436 17.6564C43.1641 18.4769 43.625 19.5897 43.625 20.75V23.8752C43.625 24.3623 43.625 24.6058 43.5127 24.7837C43.4545 24.8763 43.3763 24.9545 43.2838 25.0127C43.1058 25.125 42.8623 25.125 42.3752 25.125H34.875M39.25 16.375C38.0897 16.375 36.9769 16.8359 36.1564 17.6564C35.3359 18.4769 34.875 19.5897 34.875 20.75V25.125M39.25 16.375H23.2083C20.4579 16.375 19.0842 16.375 18.2296 17.2296C17.375 18.0842 17.375 19.4579 17.375 22.2083V42.625L21.75 41.1667L26.125 42.625L30.5 41.1667L34.875 42.625V25.125" stroke="url(#paint0_linear_104_424)"/>
<path d="M23.2085 22.2083H29.0418M24.6668 28.0416H23.2085M23.2085 33.875H27.5835" stroke="url(#paint1_linear_104_424)" stroke-linecap="round"/>
<defs>
<linearGradient id="paint0_linear_104_424" x1="44.1478" y1="15.4996" x2="20.5427" y2="35.1221" gradientUnits="userSpaceOnUse">
<stop stop-color="#F5F5F5"/>
<stop offset="1" stop-color="#AE8E73"/>
</linearGradient>
<linearGradient id="paint1_linear_104_424" x1="29.158" y1="21.8192" x2="21.5943" y2="24.963" gradientUnits="userSpaceOnUse">
<stop stop-color="#F5F5F5"/>
<stop offset="1" stop-color="#AE8E73"/>
</linearGradient>
</defs>
</svg>
