<svg width="80" height="80" viewBox="0 0 80 80" fill="none" xmlns="http://www.w3.org/2000/svg">
<path d="M0 20C0 8.95431 8.95431 0 20 0H79C79.5523 0 80 0.447715 80 1V60C80 71.0457 71.0457 80 60 80H0.999999C0.447714 80 0 79.5523 0 79V20Z" fill="#2B3745"/>
<path d="M52.5 21.25C54.1576 21.25 55.7473 21.9085 56.9194 23.0806C58.0915 24.2527 58.75 25.8424 58.75 27.5V31.9646C58.75 32.6604 58.75 33.0083 58.5896 33.2625C58.5064 33.3947 58.3947 33.5064 58.2625 33.5896C58.0083 33.75 57.6604 33.75 56.9646 33.75H46.25M52.5 21.25C50.8424 21.25 49.2527 21.9085 48.0806 23.0806C46.9085 24.2527 46.25 25.8424 46.25 27.5V33.75M52.5 21.25H29.5833C25.6542 21.25 23.6917 21.25 22.4708 22.4708C21.25 23.6917 21.25 25.6542 21.25 29.5833V58.75L27.5 56.6667L33.75 58.75L40 56.6667L46.25 58.75V33.75" stroke="url(#paint0_linear_84_108)" stroke-width="2"/>
<path d="M29.5833 29.5833H37.9166M31.6666 37.9166H29.5833M29.5833 46.25H35.8333" stroke="url(#paint1_linear_84_108)" stroke-width="2" stroke-linecap="round"/>
<defs>
<linearGradient id="paint0_linear_84_108" x1="59.4969" y1="19.9994" x2="25.7753" y2="48.0316" gradientUnits="userSpaceOnUse">
<stop stop-color="#F5F5F5"/>
<stop offset="1" stop-color="#AE8E73"/>
</linearGradient>
<linearGradient id="paint1_linear_84_108" x1="38.0826" y1="29.0275" x2="27.2772" y2="33.5186" gradientUnits="userSpaceOnUse">
<stop stop-color="#F5F5F5"/>
<stop offset="1" stop-color="#AE8E73"/>
</linearGradient>
</defs>
</svg>
