<svg width="61" height="60" viewBox="0 0 61 60" fill="none" xmlns="http://www.w3.org/2000/svg">
<path d="M0.200195 0.999999C0.200195 0.447714 0.647911 0 1.2002 0H45.2002C53.4845 0 60.2002 6.71573 60.2002 15V59C60.2002 59.5523 59.7525 60 59.2002 60H15.2002C6.91592 60 0.200195 53.2843 0.200195 45V0.999999Z" fill="url(#paint0_linear_104_445)"/>
<path d="M39.232 23.4916C40.5967 24.373 41.7364 25.6362 42.5411 27.1591C43.3457 28.682 43.7881 30.4131 43.8254 32.185C43.8336 34.2563 43.2451 36.2747 42.1482 37.9369L43.8254 44.51L37.9923 41.6671C36.3856 42.4703 34.6456 42.879 32.8879 42.8661C30.7087 42.957 28.5554 42.3086 26.7069 41.0049C24.8583 39.7013 23.3996 37.8023 22.5195 35.554" stroke="#152030" stroke-linecap="round" stroke-linejoin="round"/>
<path d="M39.4503 25.6119C39.4503 31.5113 34.5503 36.293 28.5128 36.293C26.7551 36.3059 25.0151 35.8972 23.4084 35.0941L22.4606 35.5539L17.5753 37.9361L19.2525 31.363C18.1558 29.7011 17.5672 27.683 17.5753 25.6119C17.5753 19.7117 22.4753 14.93 28.5128 14.93C33.8069 14.93 38.2253 18.6113 39.2319 23.4916C39.3789 24.1858 39.4517 24.898 39.4503 25.6119Z" stroke="#152030" stroke-linecap="round" stroke-linejoin="round"/>
<defs>
<linearGradient id="paint0_linear_104_445" x1="61.3953" y1="-2.00102" x2="7.44062" y2="42.8505" gradientUnits="userSpaceOnUse">
<stop stop-color="#F5F5F5"/>
<stop offset="1" stop-color="#AE8E73"/>
</linearGradient>
</defs>
</svg>
