<svg width="61" height="60" viewBox="0 0 61 60" fill="none" xmlns="http://www.w3.org/2000/svg">
<path d="M0.200195 0.999999C0.200195 0.447714 0.647911 0 1.2002 0H40.2002C51.2459 0 60.2002 8.95431 60.2002 20V59C60.2002 59.5523 59.7525 60 59.2002 60H20.2002C9.1545 60 0.200195 51.0457 0.200195 40V0.999999Z" fill="url(#paint0_linear_104_439)"/>
<path fill-rule="evenodd" clip-rule="evenodd" d="M32.6741 19.9176C33.0581 20.0714 32.8326 20.3722 33.36 20.306L40.1228 18.0945C40.2331 18.0628 40.3482 18.0586 40.4601 18.0823C40.572 18.106 40.6779 18.157 40.7705 18.2317C40.8589 18.3026 40.9312 18.3912 40.9874 18.4973L44.6505 25.1015H45.6691C45.6691 25.7082 45.6691 26.5 45.6691 26.8601C44.6505 29.5 43.0429 31.5 40.3163 31.5C37.5896 31.5 35.8192 29.8936 35.1691 26.8601C35.0461 26.2842 35.1685 25.5923 35.1691 25L36.2661 25.1042L40.1228 19L34.6476 20.7051L33.6691 21.2248C33.6694 21.7705 33.6396 22.018 33.36 22.4637C33.0805 22.9094 32.8167 23.0934 32.36 23.2753V34V43.5664H35.2438V45.325H39.9261V46.5H32.1223H24.3185V45.325H29.0008V43.5664H31.3419L31.5705 23.2753C31.0599 23.0716 30.5876 22.7286 30.3075 22.2062L25.1691 24L29.0008 31C29.0008 31 29.2922 31.425 29.1694 32C28.5194 35.0335 26.7486 37 24.022 37C21.2953 37 19.9848 35 18.669 32.3275C18.5459 31.7516 18.6684 31.1639 18.6691 30.5715H19.6691L23.6691 24.3207C23.7746 24.1522 24.3082 23.553 24.485 23.5L30.3075 21.2248C30.366 20.7451 30.2136 20.8753 30.485 20.5C30.7565 20.1247 31.1654 20.079 31.5705 19.9176V15.4294H32.6741V19.9176ZM43.6691 25.6597L40.7705 19.9176L37.1691 25.6597H40.3163H43.6691ZM28.0721 31L24.485 24.3207L20.1691 31H28.0721ZM44.3665 26.8601C43.7656 28.9572 42.1236 30.3772 40.3163 30.3772C38.5089 30.3772 36.867 28.9572 36.2661 26.8601H44.3665ZM28.3535 32C27.7526 34.0971 25.8293 35.8446 24.022 35.8446C22.2146 35.8446 20.27 34.0971 19.6691 32H28.3535ZM32.1223 22.4637C32.3293 22.4637 32.5278 22.3711 32.6741 22.2062C32.8205 22.0413 32.9027 21.8176 32.9027 21.5844C32.9027 21.3512 32.8205 21.1276 32.6741 20.9627C32.5278 20.7978 32.3293 20.7051 32.1223 20.7051C31.9153 20.7051 31.7168 20.7978 31.5705 20.9627C31.4241 21.1276 31.3419 21.3512 31.3419 21.5844C31.3419 21.8176 31.4241 22.0413 31.5705 22.2062C31.7168 22.3711 31.9153 22.4637 32.1223 22.4637Z" fill="#152030"/>
<defs>
<linearGradient id="paint0_linear_104_439" x1="61.3953" y1="-2.00102" x2="7.44062" y2="42.8505" gradientUnits="userSpaceOnUse">
<stop stop-color="#F5F5F5"/>
<stop offset="1" stop-color="#AE8E73"/>
</linearGradient>
</defs>
</svg>
