<svg width="80" height="80" viewBox="0 0 80 80" fill="none" xmlns="http://www.w3.org/2000/svg">
<path d="M0 0.999999C0 0.447714 0.447715 0 1 0H60C71.0457 0 80 8.95431 80 20V79C80 79.5523 79.5523 80 79 80H20C8.95431 80 0 71.0457 0 60V0.999999Z" fill="#2B3745"/>
<path fill-rule="evenodd" clip-rule="evenodd" d="M42.4229 25.8988C42.9714 26.0939 43.4542 26.4261 43.8299 26.8565L52.7373 24.629C52.8949 24.5888 53.0594 24.5835 53.2192 24.6135C53.3791 24.6436 53.5304 24.7082 53.6626 24.803C53.789 24.8929 53.8923 25.0051 53.9725 25.1396L59.2055 33.5131H61.375V33.5164C61.375 34.2857 61.2836 35.0315 61.1119 35.7428C60.1833 39.5889 56.909 42.4317 53.0138 42.4317C49.1186 42.4317 45.8443 39.5889 44.9157 35.7428C44.7399 35.0126 44.6516 34.2641 44.6526 33.5131H46.2958L50.4263 27.5053L44.6515 28.949L44.6526 29.0538C44.653 29.7457 44.4387 30.4207 44.0394 30.9858C43.64 31.5508 43.0753 31.9781 42.4229 32.2087V56.9245H45.7674V59.1541H52.4564V61.3838H30.1598V59.1541H36.8488V56.9245H40.1933V32.2087C39.4638 31.9506 38.8464 31.4475 38.4464 30.7851L31.9291 32.5231L37.055 40.4451H38.0974V40.4484C38.0981 41.1983 38.0098 41.9457 37.8343 42.6747C36.9057 46.5209 33.6314 49.3637 29.7362 49.3637C25.841 49.3637 22.5668 46.5209 21.6381 42.6747C21.4624 41.9446 21.374 41.1961 21.375 40.4451H22.7217L29.249 31.1976C29.3997 30.984 29.6207 30.8301 29.8733 30.7628L37.9948 28.5978C38.0784 27.9897 38.3277 27.4163 38.7155 26.9404C39.1033 26.4645 39.6145 26.1046 40.1933 25.8999V21.25H42.4229V25.8988ZM56.5768 33.5131L52.9692 27.7416L49.0015 33.5131H56.5768ZM34.3995 40.4451L30.1197 33.8308L25.4508 40.4451H34.3995ZM58.7997 35.7428C57.9413 38.4016 55.5957 40.2021 53.0138 40.2021C50.4319 40.2021 48.0863 38.4016 47.2278 35.7428H58.7997ZM35.5222 42.6747C34.6637 45.3336 32.3181 47.1341 29.7362 47.1341C27.1543 47.1341 24.8087 45.3336 23.9503 42.6747H35.5222ZM41.3081 30.1686C41.6038 30.1686 41.8873 30.0512 42.0964 29.8421C42.3055 29.633 42.4229 29.3495 42.4229 29.0538C42.4229 28.7581 42.3055 28.4746 42.0964 28.2655C41.8873 28.0564 41.6038 27.939 41.3081 27.939C41.0124 27.939 40.7289 28.0564 40.5198 28.2655C40.3107 28.4746 40.1933 28.7581 40.1933 29.0538C40.1933 29.3495 40.3107 29.633 40.5198 29.8421C40.7289 30.0512 41.0124 30.1686 41.3081 30.1686Z" fill="url(#paint0_linear_84_136)"/>
<defs>
<linearGradient id="paint0_linear_84_136" x1="21.375" y1="21.25" x2="50.7981" y2="68.0355" gradientUnits="userSpaceOnUse">
<stop stop-color="#F5F5F5"/>
<stop offset="1" stop-color="#AE8E73"/>
</linearGradient>
</defs>
</svg>
