<svg width="61" height="60" viewBox="0 0 61 60" fill="none" xmlns="http://www.w3.org/2000/svg">
<path d="M0.200195 0.999999C0.200195 0.447714 0.647911 0 1.2002 0H40.2002C51.2459 0 60.2002 8.95431 60.2002 20V59C60.2002 59.5523 59.7525 60 59.2002 60H20.2002C9.1545 60 0.200195 51.0457 0.200195 40V0.999999Z" fill="#2B3745"/>
<g clip-path="url(#clip0_104_453)">
<path d="M18.651 49.4358V38.7553C18.651 37.8837 18.3438 37.0478 17.7968 36.4315C17.2498 35.8152 16.5079 35.469 15.7344 35.469V22.3237C15.7344 22.3237 17.9219 20.6805 21.5677 20.6805C22.6752 20.6805 23.7782 20.8384 24.8504 21.1505M28.8608 49.4358V40.3984H23.7552V39.9876L23.8602 39.7412C26.1915 34.2243 27.4012 28.1908 27.401 22.0805V21.5399C28.8024 20.9625 30.2839 20.6715 31.776 20.6805C33.6544 20.6805 35.1463 21.1176 36.151 21.5399V22.0805C36.151 23.4006 36.2075 24.72 36.3202 26.034M43.8073 49.4358V43.8063C43.8073 41.9233 44.9506 40.3984 46.3594 40.3984V29.7787C46.3594 29.7787 44.446 28.0748 41.2552 28.0748C38.0644 28.0748 36.151 29.7787 36.151 29.7787V40.3984C37.5613 40.3984 38.7031 41.9249 38.7031 43.8063V49.4358M21.349 17.3942C21.349 17.3942 19.0156 15.7511 19.0156 13.6971C19.0156 13.3199 19.0816 12.9464 19.2097 12.598C19.3378 12.2495 19.5255 11.9329 19.7623 11.6661C19.999 11.3994 20.28 11.1879 20.5893 11.0435C20.8985 10.8992 21.23 10.8249 21.5648 10.8249C21.8996 10.8249 22.231 10.8992 22.5403 11.0435C22.8496 11.1879 23.1306 11.3994 23.3673 11.6661C23.604 11.9329 23.7918 12.2495 23.9199 12.598C24.048 12.9464 24.114 13.3199 24.114 13.6971C24.114 15.7511 21.7865 17.3942 21.7865 17.3942H21.349ZM31.5573 17.3942C31.5573 17.3942 29.224 15.7511 29.224 13.6971C29.224 12.9354 29.4925 12.2048 29.9706 11.6661C30.4487 11.1275 31.097 10.8249 31.7731 10.8249C32.4492 10.8249 33.0976 11.1275 33.5757 11.6661C34.0537 12.2048 34.3223 12.9354 34.3223 13.6971C34.3223 15.7511 31.9948 17.3942 31.9948 17.3942H31.5573ZM41.07 24.7884C41.07 24.7884 39.0677 23.3507 39.0677 21.5531C39.0677 20.1646 40.0477 19.0374 41.2581 19.0374C42.4685 19.0374 43.4427 20.1646 43.4427 21.5531C43.4427 23.3507 41.4448 24.7884 41.4448 24.7884H41.07Z" stroke="url(#paint0_linear_104_453)"/>
</g>
<defs>
<linearGradient id="paint0_linear_104_453" x1="15.7344" y1="10.8249" x2="46.2898" y2="49.4908" gradientUnits="userSpaceOnUse">
<stop stop-color="#F5F5F5"/>
<stop offset="1" stop-color="#AE8E73"/>
</linearGradient>
<clipPath id="clip0_104_453">
<rect width="35" height="39.4358" fill="white" transform="translate(13.5469 10)"/>
</clipPath>
</defs>
</svg>
