<svg width="81" height="80" viewBox="0 0 81 80" fill="none" xmlns="http://www.w3.org/2000/svg">
<path d="M0 0.999999C0 0.447714 0.447715 0 1 0H60.7883C71.834 0 80.7883 8.95431 80.7883 20V79C80.7883 79.5523 80.3406 80 79.7883 80H20C8.9543 80 0 71.0457 0 60V0.999999Z" fill="#2B3745"/>
<path d="M22.2917 65V51.4583C22.2917 50.3533 21.8527 49.2935 21.0713 48.5121C20.2899 47.7307 19.2301 47.2917 18.125 47.2917V30.625C18.125 30.625 21.25 28.5417 26.4583 28.5417C28.0404 28.5416 29.6161 28.7418 31.1479 29.1375M36.8771 65V53.5417H29.5833V53.0208L29.7333 52.7083C33.0638 45.7135 34.7919 38.0639 34.7917 30.3167V29.6313C36.7936 28.8992 38.9101 28.5302 41.0417 28.5417C43.725 28.5417 45.8562 29.0958 47.2917 29.6313V30.3167C47.2916 31.9904 47.3723 33.6632 47.5333 35.3292M58.2292 65V57.8625C58.2292 55.475 59.8625 53.5417 61.875 53.5417V40.0771C61.875 40.0771 59.1417 37.9167 54.5833 37.9167C50.025 37.9167 47.2917 40.0771 47.2917 40.0771V53.5417C49.3062 53.5417 50.9375 55.4771 50.9375 57.8625V65M26.1458 24.375C26.1458 24.375 22.8125 22.2917 22.8125 19.6875C22.8125 19.2093 22.9067 18.7357 23.0897 18.2939C23.2727 17.8521 23.541 17.4506 23.8791 17.1125C24.2173 16.7743 24.6187 16.5061 25.0606 16.323C25.5024 16.14 25.9759 16.0458 26.4542 16.0458C26.9324 16.0458 27.4059 16.14 27.8478 16.323C28.2896 16.5061 28.6911 16.7743 29.0292 17.1125C29.3674 17.4506 29.6356 17.8521 29.8186 18.2939C30.0016 18.7357 30.0958 19.2093 30.0958 19.6875C30.0958 22.2917 26.7708 24.375 26.7708 24.375H26.1458ZM40.7292 24.375C40.7292 24.375 37.3958 22.2917 37.3958 19.6875C37.3958 18.7217 37.7795 17.7954 38.4625 17.1125C39.1454 16.4295 40.0717 16.0458 41.0375 16.0458C42.0033 16.0458 42.9296 16.4295 43.6125 17.1125C44.2955 17.7954 44.6792 18.7217 44.6792 19.6875C44.6792 22.2917 41.3542 24.375 41.3542 24.375H40.7292ZM54.3187 33.75C54.3187 33.75 51.4583 31.9271 51.4583 29.6479C51.4583 27.8875 52.8583 26.4583 54.5875 26.4583C56.3167 26.4583 57.7083 27.8875 57.7083 29.6479C57.7083 31.9271 54.8542 33.75 54.8542 33.75H54.3187Z" stroke="url(#paint0_linear_84_145)" stroke-width="2.08333"/>
<defs>
<linearGradient id="paint0_linear_84_145" x1="18.125" y1="16.0458" x2="55.5637" y2="69.4264" gradientUnits="userSpaceOnUse">
<stop stop-color="#F5F5F5"/>
<stop offset="1" stop-color="#AE8E73"/>
</linearGradient>
</defs>
</svg>
