<svg width="91" height="108" viewBox="0 0 91 108" fill="none" xmlns="http://www.w3.org/2000/svg">
<path fill-rule="evenodd" clip-rule="evenodd" d="M0 2.9816C4.76824 0.993865 9.35308 0 13.7545 0C17.4224 0 21.2003 1.36196 25.0883 4.08589C27.2156 5.55828 29.5998 8.42945 32.2406 12.6994C34.0012 15.6442 36.2386 20.9816 38.9528 28.7117L52.3773 66.9202C55.4583 75.4601 58.576 82.2331 61.7303 87.2393C64.9581 92.319 67.8924 96.1104 70.5333 98.6135C73.1741 101.19 75.925 102.994 78.786 104.025C81.6469 105.055 83.9944 105.571 85.8283 105.571C87.7356 105.571 89.4228 105.423 90.89 105.129L91 106.233C87.4788 107.411 84.031 108 80.6566 108C77.2821 108 73.9077 107.117 70.5333 105.35C67.1588 103.656 64.0044 101.264 61.0701 98.1718C54.7614 91.7669 49.4063 82.0123 45.0048 68.908L40.7134 56.319L39.6131 53.0061L30.9202 27.2761C29.233 22.3436 27.6925 18.4785 26.2987 15.681C22.3374 10.0123 14.6715 2.42945 8.8029 2.42945C6.16203 2.42945 3.33777 2.9816 0.330109 4.08589L0 2.9816Z" fill="#2B3745"/>
</svg>
