<svg width="91" height="108" viewBox="0 0 91 108" fill="none" xmlns="http://www.w3.org/2000/svg">
<path fill-rule="evenodd" clip-rule="evenodd" d="M91 2.9816C86.2318 0.993865 81.6469 0 77.2455 0C73.5776 0 69.7997 1.36196 65.9117 4.08589C63.7844 5.55828 61.4002 8.42945 58.7594 12.6994C56.9988 15.6442 54.7614 20.9816 52.0472 28.7117L38.6227 66.9202C35.5417 75.4601 32.424 82.2331 29.2696 87.2393C26.0419 92.319 23.1076 96.1104 20.4667 98.6135C17.8259 101.19 15.075 102.994 12.214 104.025C9.35308 105.055 7.00565 105.571 5.17171 105.571C3.2644 105.571 1.57718 105.423 0.110031 105.129L0 106.233C3.52116 107.411 6.96896 108 10.3434 108C13.7179 108 17.0923 107.117 20.4667 105.35C23.8412 103.656 26.9956 101.264 29.9299 98.1718C36.2386 91.7669 41.5937 82.0123 45.9952 68.908L50.2866 56.319L51.3869 53.0061L60.0798 27.2761C61.767 22.3436 63.3075 18.4785 64.7013 15.681C68.6626 10.0123 76.3285 2.42945 82.1971 2.42945C84.838 2.42945 87.6622 2.9816 90.6699 4.08589L91 2.9816Z" fill="#D2B99D"/>
</svg>
