<svg width="50" height="45" viewBox="0 0 50 45" fill="none" xmlns="http://www.w3.org/2000/svg">
<path d="M3.81296 0.869209C5.10381 0.289736 6.34501 0 7.53656 0C8.52952 0 9.55226 0.397046 10.6048 1.19114C11.1807 1.62038 11.8261 2.45739 12.5411 3.70219C13.0177 4.56067 13.6234 6.11666 14.3582 8.37016L17.9924 19.5089C18.8265 21.9985 19.6705 23.973 20.5245 25.4324C21.3983 26.9133 22.1926 28.0186 22.9076 28.7483C23.6225 29.4995 24.3672 30.0253 25.1417 30.3257C25.9162 30.6262 26.5517 30.7764 27.0482 30.7764C27.5645 30.7764 28.0213 30.7335 28.4185 30.6477L28.4483 30.9696C27.495 31.313 26.5616 31.4847 25.6481 31.4847C24.7346 31.4847 23.8211 31.2271 22.9076 30.7121C21.994 30.2184 21.1401 29.5209 20.3457 28.6195C18.6378 26.7523 17.1881 23.9086 15.9966 20.0884L14.8348 16.4184H6.67268L4.61726 22.1487C4.51796 22.4063 4.46831 22.6638 4.46831 22.9214C4.46831 23.1789 4.56761 23.4579 4.7662 23.7584C4.98465 24.0374 5.31233 24.1769 5.74923 24.1769H5.98754V24.4988H0V24.1769H0.268099C0.744719 24.1769 1.21141 24.0267 1.66817 23.7262C2.12493 23.4043 2.50226 22.9321 2.80014 22.3097L10.1878 3.1871C9.11536 1.53453 7.7848 0.708245 6.19606 0.708245C5.48113 0.708245 4.71655 0.869209 3.90233 1.19114L3.81296 0.869209ZM7.00036 15.4526H14.5369L12.1836 7.95165C11.7268 6.5137 11.3098 5.38695 10.9325 4.5714L7.00036 15.4526Z" fill="#2B3745"/>
<path d="M30.7263 20.6716L32.0465 18.0451L33.1466 16.493L33.8067 15.7767L34.6868 15.0603L35.6769 14.4634L36.557 14.1052L37.327 13.8665L38.4271 13.6277H39.5273H40.0773H40.5174V13.8665L40.0773 13.9859L39.5273 14.1052L38.7572 14.344L38.0971 14.5828L37.5471 14.8216L36.667 15.2991L35.5668 16.2542C35.5668 16.2542 34.7968 17.09 34.6868 17.3287C34.5767 17.5675 34.1367 18.1644 34.1367 18.1644C34.1367 18.1644 34.0267 18.4032 33.8067 18.7614C33.5866 19.1196 33.3666 19.5971 33.3666 19.5971C33.3666 19.5971 32.9266 20.4328 32.8166 20.6716C32.7065 20.9104 32.2665 21.7461 32.0465 22.2237C31.8265 22.7012 31.2236 24.0646 30.9464 24.7308L23.7714 41.3222C23.0388 43.0629 22.6724 44.1697 22.6724 44.6424H22.4051L14.0585 23.9799C13.7813 23.2922 13.3952 22.7872 12.9001 22.4648C12.4249 22.121 11.9397 21.9491 11.4447 21.9491H11.207V21.6267H17.8902V21.9491H17.6229C17.2071 21.9491 16.8902 22.0995 16.6724 22.4004C16.4744 22.6797 16.3754 22.9483 16.3754 23.2062C16.3754 23.4426 16.4249 23.6898 16.5239 23.9476L22.7318 40.8387L29.2962 24.2533C29.3754 23.9954 30.7263 20.908 30.7263 20.6716C30.7263 20.6716 31.7241 23.9309 29.2962 24.2533L30.7263 20.6716Z" fill="#2B3745"/>
<path d="M40.3529 20.6716L41.6536 18.0451L42.7375 16.493L43.3879 15.7767L44.255 15.0603L45.2306 14.4634L46.0977 14.1052L46.8565 13.8665L47.9404 13.6277H49.0244H49.5663H49.9999V13.8665L49.5663 13.9859L49.0244 14.1052L48.2656 14.344L47.6152 14.5828L47.0733 14.8216L46.2061 15.2991L45.1222 16.2542C45.1222 16.2542 44.3634 17.09 44.255 17.3287C44.1466 17.5675 43.7131 18.1644 43.7131 18.1644C43.7131 18.1644 43.6047 18.4032 43.3879 18.7614C43.1711 19.1196 42.9543 19.5971 42.9543 19.5971C42.9543 19.5971 42.5207 20.4328 42.4123 20.6716C42.304 20.9104 41.8704 21.7461 41.6536 22.2237C41.4368 22.7012 40.8428 24.0646 40.5697 24.7308L33.5003 41.3222C32.7783 43.0629 32.4174 44.1697 32.4174 44.6424H32.154L23.9302 23.9799C23.657 23.2922 23.2766 22.7872 22.7888 22.4648C22.3205 22.121 21.8425 21.9491 21.3547 21.9491H21.1206V21.6267H27.7055V21.9491H27.4421C27.0324 21.9491 26.7202 22.0995 26.5056 22.4004C26.3105 22.6797 26.2129 22.9483 26.2129 23.2062C26.2129 23.4426 26.2617 23.6898 26.3593 23.9476L32.4759 40.8387L38.9438 24.2533C39.0218 23.9954 40.3529 20.908 40.3529 20.6716C40.3529 20.6716 41.336 23.9309 38.9438 24.2533L40.3529 20.6716Z" fill="#2B3745"/>
</svg>
