<svg width="33" height="33" viewBox="0 0 33 33" fill="none" xmlns="http://www.w3.org/2000/svg">
<path d="M24.4075 15.3972C24.4071 13.5525 23.6741 11.7834 22.3697 10.4789C21.0652 9.17448 19.2961 8.44149 17.4514 8.44112M29.176 14.9105C29.176 13.4489 28.8881 12.0016 28.3287 10.6512C27.7693 9.30085 26.9494 8.07391 25.9158 7.04045C24.8822 6.00698 23.6552 5.18724 22.3048 4.62802C20.9543 4.0688 19.507 3.78107 18.0454 3.78125M17.23 27.7984C16.8175 27.61 16.4064 27.4216 15.9952 27.1975C13.9785 26.0581 12.126 24.6501 10.4884 23.012C8.36631 21.0135 6.62277 18.6481 5.34174 16.0297C4.65645 14.6233 4.19353 13.119 3.96949 11.5706C3.66724 10.0061 3.84061 8.38685 4.46724 6.92175C4.85383 6.29198 5.32066 5.71514 5.85599 5.20575C6.07323 4.9627 6.33732 4.76604 6.63244 4.62758C6.92755 4.48912 7.2476 4.41171 7.57337 4.4C8.25124 4.50175 8.86587 4.8565 9.28937 5.39413C10.2161 6.424 11.2102 7.35075 12.1879 8.32837C12.5729 8.65837 12.8135 9.12587 12.8575 9.63187C12.841 10.0581 12.6774 10.4637 12.3941 10.7814C12.0682 11.1939 11.6736 11.5706 11.2969 11.9639C11.0691 12.1833 10.8948 12.4522 10.7875 12.7498C10.6802 13.0473 10.6428 13.3655 10.6781 13.6799C10.9146 14.4155 11.3202 15.0865 11.862 15.6365C12.512 16.5233 13.193 17.3869 13.9039 18.2256C15.2297 19.755 16.8002 21.0537 18.5514 22.0687C18.7938 22.2519 19.0805 22.3674 19.3822 22.4037C19.6839 22.4399 19.9898 22.3955 20.2687 22.275C20.8504 21.9491 21.3687 21.5187 21.795 21.0059C22.1643 20.5567 22.6929 20.2675 23.2704 20.1987C23.7846 20.2262 24.2686 20.4462 24.6261 20.8175C25.0881 21.2107 25.4827 21.6741 25.9117 22.1031C26.3407 22.5321 26.6845 22.8415 27.0447 23.2347C27.4765 23.6161 27.8821 24.0222 28.2616 24.453C28.5559 24.8339 28.6975 25.3124 28.6562 25.7909C28.503 26.3638 28.1729 26.8739 27.713 27.2484C27.0653 27.9218 26.2784 28.4458 25.4073 28.7837C24.5362 29.1217 23.6019 29.2654 22.6695 29.205C20.7816 29.1003 18.9319 28.6222 17.23 27.7984Z" stroke="url(#paint0_linear_113_310)" stroke-miterlimit="10" stroke-linecap="round"/>
<defs>
<linearGradient id="paint0_linear_113_310" x1="29.6809" y1="2.93291" x2="6.82095" y2="21.8718" gradientUnits="userSpaceOnUse">
<stop stop-color="#F5F5F5"/>
<stop offset="1" stop-color="#AE8E73"/>
</linearGradient>
</defs>
</svg>
