<svg width="35" height="35" viewBox="0 0 35 35" fill="none" xmlns="http://www.w3.org/2000/svg">
<path d="M13.125 13.125L21.875 21.875M21.875 13.125L13.125 21.875M17.5 30.625C15.7764 30.625 14.0697 30.2855 12.4773 29.6259C10.8849 28.9663 9.43799 27.9995 8.21922 26.7808C7.00045 25.562 6.03367 24.1151 5.37408 22.5227C4.71449 20.9303 4.375 19.2236 4.375 17.5C4.375 15.7764 4.71449 14.0697 5.37408 12.4773C6.03367 10.8849 7.00045 9.43799 8.21922 8.21922C9.43799 7.00045 10.8849 6.03367 12.4773 5.37408C14.0697 4.71449 15.7764 4.375 17.5 4.375C20.981 4.375 24.3194 5.75781 26.7808 8.21922C29.2422 10.6806 30.625 14.019 30.625 17.5C30.625 20.981 29.2422 24.3194 26.7808 26.7808C24.3194 29.2422 20.981 30.625 17.5 30.625Z" stroke="#2B3745" stroke-width="2" stroke-linecap="round"/>
</svg>
