<svg width="35" height="35" viewBox="0 0 35 35" fill="none" xmlns="http://www.w3.org/2000/svg">
<path d="M12.75 12.75L21.5 21.5M21.5 12.75L12.75 21.5M17.125 30.25C15.4014 30.25 13.6947 29.9105 12.1023 29.2509C10.5099 28.5913 9.06299 27.6245 7.84422 26.4058C6.62545 25.187 5.65867 23.7401 4.99908 22.1477C4.33949 20.5553 4 18.8486 4 17.125C4 15.4014 4.33949 13.6947 4.99908 12.1023C5.65867 10.5099 6.62545 9.06299 7.84422 7.84422C9.06299 6.62545 10.5099 5.65867 12.1023 4.99908C13.6947 4.33949 15.4014 4 17.125 4C20.606 4 23.9444 5.38281 26.4058 7.84422C28.8672 10.3056 30.25 13.644 30.25 17.125C30.25 20.606 28.8672 23.9444 26.4058 26.4058C23.9444 28.8672 20.606 30.25 17.125 30.25Z" stroke="#D2B99D" stroke-linecap="round"/>
</svg>
