<svg width="36" height="35" viewBox="0 0 36 35" fill="none" xmlns="http://www.w3.org/2000/svg">
<path d="M17.5117 11.4844C16.3219 11.4844 15.1589 11.8372 14.1696 12.4982C13.1804 13.1592 12.4093 14.0987 11.954 15.1979C11.4987 16.2971 11.3796 17.5067 11.6117 18.6736C11.8438 19.8405 12.4167 20.9124 13.258 21.7537C14.0993 22.595 15.1712 23.1679 16.3381 23.4C17.505 23.6322 18.7146 23.513 19.8138 23.0577C20.913 22.6024 21.8525 21.8314 22.5135 20.8421C23.1745 19.8528 23.5273 18.6898 23.5273 17.5C23.5255 15.9051 22.8912 14.3761 21.7634 13.2483C20.6357 12.1206 19.1066 11.4862 17.5117 11.4844ZM17.5117 22.4219C16.5383 22.4219 15.5867 22.1332 14.7773 21.5924C13.9679 21.0516 13.337 20.2829 12.9645 19.3835C12.592 18.4842 12.4945 17.4945 12.6844 16.5398C12.8743 15.585 13.3431 14.708 14.0314 14.0197C14.7198 13.3314 15.5968 12.8626 16.5515 12.6727C17.5063 12.4828 18.4959 12.5803 19.3952 12.9528C20.2946 13.3253 21.0633 13.9562 21.6041 14.7656C22.1449 15.575 22.4336 16.5265 22.4336 17.5C22.4336 18.8054 21.915 20.0573 20.992 20.9803C20.069 21.9033 18.8171 22.4219 17.5117 22.4219ZM24.0742 3.82812H10.9492C9.06436 3.8303 7.25733 4.58001 5.92453 5.91281C4.59173 7.24561 3.84201 9.05264 3.83984 10.9375V24.0625C3.84201 25.9474 4.59173 27.7544 5.92453 29.0872C7.25733 30.42 9.06436 31.1697 10.9492 31.1719H24.0742C25.9591 31.1697 27.7661 30.42 29.0989 29.0872C30.4317 27.7544 31.1814 25.9474 31.1836 24.0625V10.9375C31.1814 9.05264 30.4317 7.24561 29.0989 5.91281C27.7661 4.58001 25.9591 3.8303 24.0742 3.82812ZM30.0898 24.0625C30.088 25.6574 29.4537 27.1864 28.3259 28.3142C27.1982 29.4419 25.6691 30.0763 24.0742 30.0781H10.9492C9.35433 30.0763 7.82528 29.4419 6.69753 28.3142C5.56977 27.1864 4.9354 25.6574 4.93359 24.0625V10.9375C4.9354 9.34261 5.56977 7.81357 6.69753 6.68581C7.82528 5.55805 9.35433 4.92368 10.9492 4.92188H24.0742C25.6691 4.92368 27.1982 5.55805 28.3259 6.68581C29.4537 7.81357 30.088 9.34261 30.0898 10.9375V24.0625ZM25.7148 10.3906C25.7148 10.6069 25.6507 10.8184 25.5305 10.9983C25.4103 11.1781 25.2395 11.3183 25.0397 11.4011C24.8398 11.4839 24.6199 11.5056 24.4077 11.4634C24.1955 11.4212 24.0007 11.317 23.8477 11.164C23.6947 11.0111 23.5906 10.8162 23.5484 10.604C23.5062 10.3918 23.5278 10.1719 23.6106 9.97206C23.6934 9.77221 23.8336 9.60139 24.0134 9.48121C24.1933 9.36102 24.4048 9.29688 24.6211 9.29688C24.9112 9.29688 25.1894 9.41211 25.3945 9.61723C25.5996 9.82235 25.7148 10.1005 25.7148 10.3906Z" fill="url(#paint0_linear_141_94)"/>
<defs>
<linearGradient id="paint0_linear_141_94" x1="31.7282" y1="2.9162" x2="7.13952" y2="23.3563" gradientUnits="userSpaceOnUse">
<stop stop-color="#F5F5F5"/>
<stop offset="1" stop-color="#AE8E73"/>
</linearGradient>
</defs>
</svg>
