<svg width="95" height="75" viewBox="0 0 95 75" fill="none" xmlns="http://www.w3.org/2000/svg">
<path d="M94.1254 10.6582L93.9567 11.807H92.2295V16.3619H90.912V11.807H89.1045V10.6582H94.1254Z" fill="url(#paint0_linear_63_1778)"/>
<path d="M80.6323 16.3619V10.6582H81.9418V15.2131H84.408L84.3277 16.3619H80.6323Z" fill="url(#paint1_linear_63_1778)"/>
<path d="M68.6765 16.3619L71.1508 10.6582H72.2514L74.6293 16.3619H73.2957L72.8378 15.1971H70.484L70.0101 16.3619H68.6765ZM70.9339 14.1045H72.404L71.681 12.2649L70.9339 14.1045Z" fill="url(#paint2_linear_63_1778)"/>
<path d="M62.4677 10.6582H63.7048L62.0579 16.3619H60.5718L59.6319 12.3131L58.5072 16.3619H57.013L55.5911 10.6582H56.9166L57.8404 14.6187L58.933 10.6582H60.4914L61.3831 14.6026L62.4677 10.6582Z" fill="url(#paint3_linear_63_1778)"/>
<path d="M48.0799 10.6582H49.3411V16.3619H48.1763L45.6458 12.8192V16.3619H44.3845V10.6582H45.5494L48.0799 14.2009V10.6582Z" fill="url(#paint4_linear_63_1778)"/>
<path d="M32.429 16.3619L34.9032 10.6582H36.0038L38.3817 16.3619H37.0482L36.5903 15.1971H34.2365L33.7625 16.3619H32.429ZM34.6863 14.1045H36.1565L35.4334 12.2649L34.6863 14.1045Z" fill="url(#paint5_linear_63_1778)"/>
<path d="M6.94085 1.46409C9.29062 0.488029 11.55 0 13.719 0C15.5265 0 17.3883 0.66878 19.3042 2.00634C20.3526 2.72934 21.5275 4.13921 22.8289 6.23592C23.6965 7.68193 24.7991 10.3028 26.1366 14.0986L32.7521 32.8606C34.2705 37.054 35.8068 40.3799 37.3613 42.8381C38.9519 45.3324 40.3979 47.1942 41.6993 48.4233C43.0008 49.6886 44.3564 50.5742 45.7662 51.0803C47.1761 51.5864 48.3329 51.8395 49.2367 51.8395C50.1766 51.8395 51.008 51.7672 51.731 51.6226L51.7853 52.1648C50.0501 52.7432 48.351 53.0325 46.6881 53.0325C45.0252 53.0325 43.3623 52.5987 41.6993 51.731C40.0364 50.8996 38.482 49.7247 37.036 48.2064C33.927 45.0613 31.2881 40.2714 29.119 33.8367L27.0043 27.655H12.1465L8.40494 37.3071C8.22419 37.7409 8.13381 38.1747 8.13381 38.6085C8.13381 39.0423 8.31456 39.5123 8.67607 40.0184C9.07372 40.4883 9.6702 40.7233 10.4655 40.7233H10.8993V41.2655H0V40.7233H0.488029C1.35564 40.7233 2.20517 40.4702 3.03662 39.9641C3.86808 39.4219 4.55493 38.6266 5.09719 37.5782L18.5451 5.36831C16.593 2.58475 14.1709 1.19296 11.2789 1.19296C9.97748 1.19296 8.58569 1.46409 7.10353 2.00634L6.94085 1.46409ZM12.743 26.0282H26.462L22.1782 13.3937C21.3467 10.9716 20.5876 9.07372 19.9007 7.70001L12.743 26.0282Z" fill="url(#paint6_linear_63_1778)"/>
<path d="M56.1194 34.6381L58.5294 30.2197L60.5378 27.6089L61.7428 26.4038L63.3495 25.1988L65.157 24.1947L66.7637 23.5922L68.1695 23.1905L70.1779 22.7888H72.1862H73.1904H73.9937V23.1905L73.1904 23.3913L72.1862 23.5922L70.7804 23.9938L69.5753 24.3955L68.5712 24.7972L66.9645 25.6005L64.9561 27.2072C64.9561 27.2072 63.5503 28.613 63.3495 29.0147C63.1486 29.4164 62.3453 30.4205 62.3453 30.4205C62.3453 30.4205 62.1445 30.8222 61.7428 31.4247C61.3411 32.0272 60.9394 32.8306 60.9394 32.8306C60.9394 32.8306 60.1361 34.2364 59.9353 34.6381C59.7344 35.0397 58.9311 36.4456 58.5294 37.2489C58.1278 38.0523 57.0272 40.3458 56.5211 41.4665L43.4227 69.3765C42.0851 72.3047 41.4164 74.1664 41.4164 74.9617H40.9283L25.691 40.2032C25.1849 39.0464 24.48 38.1969 23.5762 37.6546C22.7086 37.0762 21.8229 36.787 20.9192 36.787H20.4854V36.2448H32.6861V36.787H32.198C31.4389 36.787 30.8605 37.0401 30.4628 37.5462C30.1013 38.0161 29.9206 38.468 29.9206 38.9018C29.9206 39.2995 30.0109 39.7152 30.1917 40.149L41.5248 68.5631L53.5086 40.6631C53.6532 40.2293 56.1194 35.0357 56.1194 34.6381C56.1194 34.6381 57.9409 40.1209 53.5086 40.6631L56.1194 34.6381Z" fill="url(#paint7_linear_63_1778)"/>
<path d="M73.8792 34.6381L76.2892 30.2197L78.2975 27.6089L79.5026 26.4038L81.1092 25.1988L82.9167 24.1947L84.5234 23.5922L85.9293 23.1905L87.9376 22.7888H89.946H90.9501H91.7535V23.1905L90.9501 23.3913L89.946 23.5922L88.5401 23.9938L87.3351 24.3955L86.3309 24.7972L84.7243 25.6005L82.7159 27.2072C82.7159 27.2072 81.3101 28.613 81.1092 29.0147C80.9084 29.4164 80.1051 30.4205 80.1051 30.4205C80.1051 30.4205 79.9042 30.8222 79.5026 31.4247C79.1009 32.0272 78.6992 32.8306 78.6992 32.8306C78.6992 32.8306 77.8959 34.2364 77.695 34.6381C77.4942 35.0397 76.6909 36.4456 76.2892 37.2489C75.8875 38.0523 74.787 40.3458 74.2808 41.4665L61.1825 69.3765C59.8449 72.3047 59.1761 74.1664 59.1761 74.9617H58.6881L43.4508 40.2032C42.9447 39.0464 42.2397 38.1969 41.336 37.6546C40.4684 37.0762 39.5827 36.787 38.6789 36.787H38.2451V36.2448H50.4458V36.787H49.9578C49.1986 36.787 48.6202 37.0401 48.2226 37.5462C47.8611 38.0161 47.6803 38.468 47.6803 38.9018C47.6803 39.2995 47.7707 39.7152 47.9515 40.149L59.2846 68.5631L71.2683 40.6631C71.4129 40.2293 73.8792 35.0357 73.8792 34.6381C73.8792 34.6381 75.7007 40.1209 71.2683 40.6631L73.8792 34.6381Z" fill="url(#paint8_linear_63_1778)"/>
<defs>
<linearGradient id="paint0_linear_63_1778" x1="94.2254" y1="10.468" x2="89.253" y2="14.1066" gradientUnits="userSpaceOnUse">
<stop stop-color="#F5F5F5"/>
<stop offset="1" stop-color="#AE8E73"/>
</linearGradient>
<linearGradient id="paint1_linear_63_1778" x1="84.4832" y1="10.468" x2="80.0762" y2="12.8931" gradientUnits="userSpaceOnUse">
<stop stop-color="#F5F5F5"/>
<stop offset="1" stop-color="#AE8E73"/>
</linearGradient>
<linearGradient id="paint2_linear_63_1778" x1="74.7478" y1="10.468" x2="69.5832" y2="14.9487" gradientUnits="userSpaceOnUse">
<stop stop-color="#F5F5F5"/>
<stop offset="1" stop-color="#AE8E73"/>
</linearGradient>
<linearGradient id="paint3_linear_63_1778" x1="63.8664" y1="10.468" x2="58.722" y2="16.5513" gradientUnits="userSpaceOnUse">
<stop stop-color="#F5F5F5"/>
<stop offset="1" stop-color="#AE8E73"/>
</linearGradient>
<linearGradient id="paint4_linear_63_1778" x1="49.4398" y1="10.468" x2="44.4872" y2="14.0458" gradientUnits="userSpaceOnUse">
<stop stop-color="#F5F5F5"/>
<stop offset="1" stop-color="#AE8E73"/>
</linearGradient>
<linearGradient id="paint5_linear_63_1778" x1="38.5003" y1="10.468" x2="33.3356" y2="14.9487" gradientUnits="userSpaceOnUse">
<stop stop-color="#F5F5F5"/>
<stop offset="1" stop-color="#AE8E73"/>
</linearGradient>
<linearGradient id="paint6_linear_63_1778" x1="52.8167" y1="-1.76865" x2="5.34747" y2="36.7637" gradientUnits="userSpaceOnUse">
<stop stop-color="#F5F5F5"/>
<stop offset="1" stop-color="#AE8E73"/>
</linearGradient>
<linearGradient id="paint7_linear_63_1778" x1="75.0595" y1="21.0488" x2="27.9408" y2="61.2204" gradientUnits="userSpaceOnUse">
<stop stop-color="#F5F5F5"/>
<stop offset="1" stop-color="#AE8E73"/>
</linearGradient>
<linearGradient id="paint8_linear_63_1778" x1="92.8192" y1="21.0488" x2="45.7005" y2="61.2204" gradientUnits="userSpaceOnUse">
<stop stop-color="#F5F5F5"/>
<stop offset="1" stop-color="#AE8E73"/>
</linearGradient>
</defs>
</svg>
