<svg width="51" height="40" viewBox="0 0 51 40" fill="none" xmlns="http://www.w3.org/2000/svg">
<path d="M50.4996 5.75146L50.41 6.3617H49.4925V8.78132H48.7927V6.3617H47.8325V5.75146H50.4996Z" fill="url(#paint0_linear_104_466)"/>
<path d="M43.332 8.78132V5.75146H44.0276V8.17108H45.3377L45.295 8.78132H43.332Z" fill="url(#paint1_linear_104_466)"/>
<path d="M36.9814 8.78132L38.2958 5.75146H38.8804L40.1436 8.78132H39.4352L39.192 8.16254H37.9416L37.6898 8.78132H36.9814ZM38.1806 7.58218H38.9615L38.5775 6.60494L38.1806 7.58218Z" fill="url(#paint2_linear_104_466)"/>
<path d="M33.6832 5.75146H34.3403L33.4655 8.78132H32.6761L32.1768 6.63055L31.5793 8.78132H30.7856L30.0303 5.75146H30.7344L31.2251 7.85529L31.8055 5.75146H32.6334L33.1071 7.84676L33.6832 5.75146Z" fill="url(#paint3_linear_104_466)"/>
<path d="M26.0402 5.75146H26.7101V8.78132H26.0914L24.7471 6.89939V8.78132H24.0771V5.75146H24.6959L26.0402 7.63339V5.75146Z" fill="url(#paint4_linear_104_466)"/>
<path d="M17.7266 8.78132L19.0409 5.75146H19.6256L20.8887 8.78132H20.1803L19.9371 8.16254H18.6867L18.435 8.78132H17.7266ZM18.9257 7.58218H19.7066L19.3226 6.60494L18.9257 7.58218Z" fill="url(#paint5_linear_104_466)"/>
<path d="M4.18703 0.867577C5.43524 0.349088 6.63545 0.0898438 7.78765 0.0898438C8.74781 0.0898438 9.73678 0.445104 10.7546 1.15563C11.3114 1.53969 11.9356 2.28862 12.6269 3.40241C13.0878 4.17054 13.6735 5.56278 14.384 7.57912L17.8982 17.5456C18.7047 19.7732 19.5209 21.5399 20.3466 22.8457C21.1915 24.1708 21.9597 25.1597 22.651 25.8126C23.3423 26.4848 24.0624 26.9552 24.8114 27.2241C25.5603 27.4929 26.1748 27.6273 26.6549 27.6273C27.1542 27.6273 27.5958 27.5889 27.9799 27.5121L28.0087 27.8002C27.0869 28.1074 26.1844 28.2611 25.301 28.2611C24.4177 28.2611 23.5343 28.0306 22.651 27.5697C21.7676 27.1281 20.9419 26.504 20.1738 25.6974C18.5223 24.0267 17.1204 21.4823 15.9682 18.0641L14.8449 14.7804H6.9523L4.96476 19.9076C4.86875 20.1381 4.82074 20.3685 4.82074 20.599C4.82074 20.8294 4.91675 21.079 5.10879 21.3479C5.32002 21.5975 5.63688 21.7223 6.05935 21.7223H6.28979V22.0104H0.5V21.7223H0.759244C1.22012 21.7223 1.6714 21.5879 2.11308 21.3191C2.55475 21.031 2.91961 20.6086 3.20766 20.0517L10.3513 2.94153C9.31431 1.46288 8.02769 0.723552 6.49142 0.723552C5.80011 0.723552 5.06078 0.867577 4.27345 1.15563L4.18703 0.867577ZM7.26916 13.9162H14.5568L12.2812 7.20466C11.8395 5.91804 11.4363 4.90987 11.0714 4.18014L7.26916 13.9162Z" fill="url(#paint6_linear_104_466)"/>
<path d="M30.3109 18.4897L31.5911 16.1427L32.658 14.7557L33.2981 14.1156L34.1516 13.4755L35.1117 12.9421L35.9652 12.6221L36.712 12.4087L37.7788 12.1953H38.8457H39.3791H39.8059V12.4087L39.3791 12.5154L38.8457 12.6221L38.0989 12.8354L37.4588 13.0488L36.9254 13.2622L36.0719 13.6889L35.005 14.5424C35.005 14.5424 34.2582 15.2892 34.1516 15.5025C34.0449 15.7159 33.6181 16.2493 33.6181 16.2493C33.6181 16.2493 33.5115 16.4627 33.2981 16.7828C33.0847 17.1028 32.8713 17.5296 32.8713 17.5296C32.8713 17.5296 32.4446 18.2764 32.3379 18.4897C32.2312 18.7031 31.8045 19.4499 31.5911 19.8766C31.3778 20.3034 30.7931 21.5217 30.5243 22.117L23.5663 36.943C22.8558 38.4985 22.5005 39.4874 22.5005 39.9099H22.2413L14.1471 21.446C13.8783 20.8315 13.5038 20.3802 13.0237 20.0921C12.5628 19.7849 12.0924 19.6312 11.6123 19.6312H11.3818V19.3432H17.8629V19.6312H17.6037C17.2004 19.6312 16.8932 19.7657 16.6819 20.0345C16.4899 20.2842 16.3939 20.5242 16.3939 20.7546C16.3939 20.9659 16.4419 21.1867 16.5379 21.4172L22.5581 36.5109L28.924 21.6903C29.0008 21.4598 30.3109 18.701 30.3109 18.4897C30.3109 18.4897 31.2785 21.4022 28.924 21.6903L30.3109 18.4897Z" fill="url(#paint7_linear_104_466)"/>
<path d="M39.745 18.4897L41.0252 16.1427L42.0921 14.7557L42.7322 14.1156L43.5856 13.4755L44.5458 12.9421L45.3993 12.6221L46.1461 12.4087L47.2129 12.1953H48.2798H48.8132H49.2399V12.4087L48.8132 12.5154L48.2798 12.6221L47.533 12.8354L46.8929 13.0488L46.3595 13.2622L45.506 13.6889L44.4391 14.5424C44.4391 14.5424 43.6923 15.2892 43.5856 15.5025C43.479 15.7159 43.0522 16.2493 43.0522 16.2493C43.0522 16.2493 42.9455 16.4627 42.7322 16.7828C42.5188 17.1028 42.3054 17.5296 42.3054 17.5296C42.3054 17.5296 41.8787 18.2764 41.772 18.4897C41.6653 18.7031 41.2386 19.4499 41.0252 19.8766C40.8118 20.3034 40.2272 21.5217 39.9584 22.117L33.0004 36.943C32.2899 38.4985 31.9346 39.4874 31.9346 39.9099H31.6754L23.5812 21.446C23.3123 20.8315 22.9379 20.3802 22.4578 20.0921C21.9969 19.7849 21.5264 19.6312 21.0464 19.6312H20.8159V19.3432H27.297V19.6312H27.0378C26.6345 19.6312 26.3273 19.7657 26.116 20.0345C25.924 20.2842 25.828 20.5242 25.828 20.7546C25.828 20.9659 25.876 21.1867 25.972 21.4172L31.9922 36.5109L38.3581 21.6903C38.4349 21.4598 39.745 18.701 39.745 18.4897C39.745 18.4897 40.7126 21.4022 38.3581 21.6903L39.745 18.4897Z" fill="url(#paint8_linear_104_466)"/>
<defs>
<linearGradient id="paint0_linear_104_466" x1="50.5528" y1="5.65042" x2="47.9114" y2="7.58327" gradientUnits="userSpaceOnUse">
<stop stop-color="#F5F5F5"/>
<stop offset="1" stop-color="#AE8E73"/>
</linearGradient>
<linearGradient id="paint1_linear_104_466" x1="45.3777" y1="5.65042" x2="43.0366" y2="6.93865" gradientUnits="userSpaceOnUse">
<stop stop-color="#F5F5F5"/>
<stop offset="1" stop-color="#AE8E73"/>
</linearGradient>
<linearGradient id="paint2_linear_104_466" x1="40.2066" y1="5.65042" x2="37.4631" y2="8.03062" gradientUnits="userSpaceOnUse">
<stop stop-color="#F5F5F5"/>
<stop offset="1" stop-color="#AE8E73"/>
</linearGradient>
<linearGradient id="paint3_linear_104_466" x1="34.4262" y1="5.65042" x2="31.6935" y2="8.88195" gradientUnits="userSpaceOnUse">
<stop stop-color="#F5F5F5"/>
<stop offset="1" stop-color="#AE8E73"/>
</linearGradient>
<linearGradient id="paint4_linear_104_466" x1="26.7626" y1="5.65042" x2="24.1317" y2="7.55096" gradientUnits="userSpaceOnUse">
<stop stop-color="#F5F5F5"/>
<stop offset="1" stop-color="#AE8E73"/>
</linearGradient>
<linearGradient id="paint5_linear_104_466" x1="20.9517" y1="5.65042" x2="18.2082" y2="8.03062" gradientUnits="userSpaceOnUse">
<stop stop-color="#F5F5F5"/>
<stop offset="1" stop-color="#AE8E73"/>
</linearGradient>
<linearGradient id="paint6_linear_104_466" x1="28.5566" y1="-0.849677" x2="3.34062" y2="19.619" gradientUnits="userSpaceOnUse">
<stop stop-color="#F5F5F5"/>
<stop offset="1" stop-color="#AE8E73"/>
</linearGradient>
<linearGradient id="paint7_linear_104_466" x1="40.372" y1="11.271" x2="15.3422" y2="32.6104" gradientUnits="userSpaceOnUse">
<stop stop-color="#F5F5F5"/>
<stop offset="1" stop-color="#AE8E73"/>
</linearGradient>
<linearGradient id="paint8_linear_104_466" x1="49.8061" y1="11.271" x2="24.7763" y2="32.6104" gradientUnits="userSpaceOnUse">
<stop stop-color="#F5F5F5"/>
<stop offset="1" stop-color="#AE8E73"/>
</linearGradient>
</defs>
</svg>
