<svg width="196" height="177" viewBox="0 0 196 177" fill="none" xmlns="http://www.w3.org/2000/svg">
<g filter="url(#filter0_i_96_393)">
<path d="M69.3516 38.7152L74.5911 25.3196H76.9217L81.9571 38.7152H79.1332L78.1635 35.9795H73.1792L72.1755 38.7152H69.3516ZM74.1318 33.4136H77.2449L75.7139 29.093L74.1318 33.4136Z" fill="url(#paint0_linear_96_393)"/>
<path d="M99.7823 25.3196H102.453V38.7152H99.9865L94.6278 30.3948V38.7152H91.957V25.3196H94.4237L99.7823 33.64V25.3196Z" fill="url(#paint1_linear_96_393)"/>
<path d="M127.015 25.3196H129.635L126.147 38.7152H123L121.01 29.2062L118.628 38.7152H115.464L112.453 25.3196H115.26L117.216 34.6211L119.53 25.3196H122.83L124.718 34.5833L127.015 25.3196Z" fill="url(#paint2_linear_96_393)"/>
<path d="M139.635 38.7152L144.874 25.3196H147.205L152.24 38.7152H149.416L148.447 35.9795H143.462L142.459 38.7152H139.635ZM144.415 33.4136H147.528L145.997 29.093L144.415 33.4136Z" fill="url(#paint3_linear_96_393)"/>
<path d="M162.24 38.7152V25.3196H165.013V36.0172H170.236L170.066 38.7152H162.24Z" fill="url(#paint4_linear_96_393)"/>
<path d="M190.868 25.3196L190.511 28.0176H186.853V38.7152H184.063V28.0176H180.236V25.3196H190.868Z" fill="url(#paint5_linear_96_393)"/>
<path d="M14.8054 3.43345C19.8176 1.14448 24.637 0 29.2637 0C33.1193 0 37.0905 1.56836 41.1774 4.7051C43.4136 6.40062 45.9197 9.70691 48.6958 14.624C50.5464 18.015 52.8983 24.1613 55.7514 33.0628L69.8628 77.0619C73.1015 86.8959 76.3787 94.6954 79.6945 100.46C83.0874 106.31 86.1718 110.676 88.9478 113.558C91.7238 116.525 94.6155 118.602 97.6228 119.789C100.63 120.976 103.098 121.57 105.026 121.57C107.03 121.57 108.804 121.4 110.346 121.061L110.462 122.333C106.761 123.689 103.136 124.367 99.5892 124.367C96.0421 124.367 92.4949 123.35 88.9478 121.315C85.4007 119.365 82.0849 116.61 79.0005 113.049C72.3689 105.674 66.7398 94.441 62.1131 79.3508L57.6021 64.854H25.9094L17.9284 87.4894C17.5428 88.5067 17.35 89.524 17.35 90.5413C17.35 91.5587 17.7356 92.6607 18.5067 93.8476C19.3549 94.9497 20.6273 95.5007 22.3237 95.5007H23.249V96.7724H0V95.5007H1.041C2.89167 95.5007 4.70379 94.9073 6.47734 93.7204C8.2509 92.4488 9.71602 90.5837 10.8727 88.1252L39.5581 12.5893C35.3941 6.06152 30.2276 2.79763 24.0587 2.79763C21.2827 2.79763 18.3139 3.43345 15.1524 4.7051L14.8054 3.43345ZM27.1817 61.0391H56.4454L47.3077 31.4097C45.5342 25.7297 43.9149 21.2789 42.4497 18.0574L27.1817 61.0391Z" fill="url(#paint6_linear_96_393)"/>
<path d="M119.307 81.6547L124.433 71.2796L128.704 65.1488L131.267 62.3193L134.685 59.4897L138.529 57.1317L141.946 55.7169L144.937 54.7738L149.208 53.8306H153.48H155.616H157.324V54.7738L155.616 55.2454L153.48 55.7169L150.49 56.6601L147.927 57.6033L145.791 58.5465L142.374 60.4329L138.102 64.2057C138.102 64.2057 135.112 67.5068 134.685 68.45C134.257 69.3932 132.549 71.7512 132.549 71.7512C132.549 71.7512 132.122 72.6944 131.267 74.1091C130.413 75.5239 129.559 77.4103 129.559 77.4103C129.559 77.4103 127.85 80.7115 127.423 81.6547C126.996 82.5979 125.287 85.899 124.433 87.7854C123.578 89.6718 121.238 95.0574 120.161 97.6889L92.3015 163.226C89.4566 170.102 88.0342 174.474 88.0342 176.341H86.9962L54.5872 94.7226C53.5108 92.0062 52.0114 90.0113 50.0892 88.738C48.2438 87.3798 46.36 86.7007 44.4378 86.7007H43.5151V85.4274H69.4654V86.7007H68.4273C66.8127 86.7007 65.5824 87.2949 64.7366 88.4834C63.9678 89.5869 63.5833 90.648 63.5833 91.6666C63.5833 92.6004 63.7755 93.5766 64.16 94.5952L88.2648 161.316L113.754 95.8025C114.061 94.7839 119.307 82.5884 119.307 81.6547C119.307 81.6547 123.181 94.5292 113.754 95.8025L119.307 81.6547Z" fill="url(#paint7_linear_96_393)"/>
<path d="M157.686 81.6547L162.737 71.2796L166.946 65.1488L169.471 62.3193L172.838 59.4897L176.626 57.1317L179.993 55.7169L182.939 54.7738L187.148 53.8306H191.357H193.461H195.145V54.7738L193.461 55.2454L191.357 55.7169L188.411 56.6601L185.885 57.6033L183.781 58.5465L180.414 60.4329L176.205 64.2057C176.205 64.2057 173.259 67.5068 172.838 68.45C172.417 69.3932 170.734 71.7512 170.734 71.7512C170.734 71.7512 170.313 72.6944 169.471 74.1091C168.629 75.5239 167.787 77.4103 167.787 77.4103C167.787 77.4103 166.104 80.7115 165.683 81.6547C165.262 82.5979 163.579 85.899 162.737 87.7854C161.895 89.6718 159.589 95.0574 158.528 97.6889L131.078 163.226C128.275 170.102 126.874 174.474 126.874 176.341H125.851L93.9185 94.7226C92.8579 92.0062 91.3806 90.0113 89.4867 88.738C87.6684 87.3798 85.8124 86.7007 83.9184 86.7007H83.0093V85.4274H108.578V86.7007H107.555C105.964 86.7007 104.752 87.2949 103.919 88.4834C103.161 89.5869 102.782 90.648 102.782 91.6666C102.782 92.6004 102.972 93.5766 103.351 94.5952L127.101 161.316L152.215 95.8025C152.518 94.7839 157.686 82.5884 157.686 81.6547C157.686 81.6547 161.504 94.5292 152.215 95.8025L157.686 81.6547Z" fill="url(#paint8_linear_96_393)"/>
</g>
<defs>
<filter id="filter0_i_96_393" x="0" y="0" width="195.145" height="180.342" filterUnits="userSpaceOnUse" color-interpolation-filters="sRGB">
<feFlood flood-opacity="0" result="BackgroundImageFix"/>
<feBlend mode="normal" in="SourceGraphic" in2="BackgroundImageFix" result="shape"/>
<feColorMatrix in="SourceAlpha" type="matrix" values="0 0 0 0 0 0 0 0 0 0 0 0 0 0 0 0 0 0 127 0" result="hardAlpha"/>
<feOffset dy="4"/>
<feGaussianBlur stdDeviation="2"/>
<feComposite in2="hardAlpha" operator="arithmetic" k2="-1" k3="1"/>
<feColorMatrix type="matrix" values="0 0 0 0 0 0 0 0 0 0 0 0 0 0 0 0 0 0 0.02 0"/>
<feBlend mode="normal" in2="shape" result="effect1_innerShadow_96_393"/>
</filter>
<linearGradient id="paint0_linear_96_393" x1="82.2082" y1="24.8728" x2="70.3164" y2="34.1752" gradientUnits="userSpaceOnUse">
<stop stop-color="#F5F5F5"/>
<stop offset="1" stop-color="#AE8E73"/>
</linearGradient>
<linearGradient id="paint1_linear_96_393" x1="102.662" y1="24.8728" x2="91.4557" y2="32.1721" gradientUnits="userSpaceOnUse">
<stop stop-color="#F5F5F5"/>
<stop offset="1" stop-color="#AE8E73"/>
</linearGradient>
<linearGradient id="paint2_linear_96_393" x1="129.977" y1="24.8728" x2="117.75" y2="37.9096" gradientUnits="userSpaceOnUse">
<stop stop-color="#F5F5F5"/>
<stop offset="1" stop-color="#AE8E73"/>
</linearGradient>
<linearGradient id="paint3_linear_96_393" x1="152.491" y1="24.8728" x2="140.6" y2="34.1752" gradientUnits="userSpaceOnUse">
<stop stop-color="#F5F5F5"/>
<stop offset="1" stop-color="#AE8E73"/>
</linearGradient>
<linearGradient id="paint4_linear_96_393" x1="170.395" y1="24.8728" x2="160.639" y2="29.7136" gradientUnits="userSpaceOnUse">
<stop stop-color="#F5F5F5"/>
<stop offset="1" stop-color="#AE8E73"/>
</linearGradient>
<linearGradient id="paint5_linear_96_393" x1="191.08" y1="24.8728" x2="179.816" y2="32.3049" gradientUnits="userSpaceOnUse">
<stop stop-color="#F5F5F5"/>
<stop offset="1" stop-color="#AE8E73"/>
</linearGradient>
<linearGradient id="paint6_linear_96_393" x1="112.662" y1="-4.14769" x2="3.95123" y2="76.1176" gradientUnits="userSpaceOnUse">
<stop stop-color="#F5F5F5"/>
<stop offset="1" stop-color="#AE8E73"/>
</linearGradient>
<linearGradient id="paint7_linear_96_393" x1="159.591" y1="49.7448" x2="51.179" y2="133.465" gradientUnits="userSpaceOnUse">
<stop stop-color="#F5F5F5"/>
<stop offset="1" stop-color="#AE8E73"/>
</linearGradient>
<linearGradient id="paint8_linear_96_393" x1="197.378" y1="49.7448" x2="89.3826" y2="131.917" gradientUnits="userSpaceOnUse">
<stop stop-color="#F5F5F5"/>
<stop offset="1" stop-color="#AE8E73"/>
</linearGradient>
</defs>
</svg>
