<svg width="35" height="35" viewBox="0 0 35 35" fill="none" xmlns="http://www.w3.org/2000/svg">
<path d="M29.5312 10.2097H5.46875C4.86469 10.2097 4.375 10.6994 4.375 11.3035C4.375 11.9075 4.86469 12.3972 5.46875 12.3972H29.5312C30.1353 12.3972 30.625 11.9075 30.625 11.3035C30.625 10.6994 30.1353 10.2097 29.5312 10.2097Z" fill="#152030"/>
<path d="M25.1562 16.4077H5.46875C4.86469 16.4077 4.375 16.8974 4.375 17.5015C4.375 18.1055 4.86469 18.5952 5.46875 18.5952H25.1562C25.7603 18.5952 26.25 18.1055 26.25 17.5015C26.25 16.8974 25.7603 16.4077 25.1562 16.4077Z" fill="#152030"/>
<path d="M29.5312 22.6028H5.46875C4.86469 22.6028 4.375 23.0925 4.375 23.6965C4.375 24.3006 4.86469 24.7903 5.46875 24.7903H29.5312C30.1353 24.7903 30.625 24.3006 30.625 23.6965C30.625 23.0925 30.1353 22.6028 29.5312 22.6028Z" fill="#152030"/>
</svg>
