<svg width="36" height="36" viewBox="0 0 36 36" fill="none" xmlns="http://www.w3.org/2000/svg">
<path d="M30.0312 10.7097H5.96875C5.36469 10.7097 4.875 11.1994 4.875 11.8035C4.875 12.4075 5.36469 12.8972 5.96875 12.8972H30.0312C30.6353 12.8972 31.125 12.4075 31.125 11.8035C31.125 11.1994 30.6353 10.7097 30.0312 10.7097Z" fill="#2B3745"/>
<path d="M25.6562 16.9077H5.96875C5.36469 16.9077 4.875 17.3974 4.875 18.0015C4.875 18.6055 5.36469 19.0952 5.96875 19.0952H25.6562C26.2603 19.0952 26.75 18.6055 26.75 18.0015C26.75 17.3974 26.2603 16.9077 25.6562 16.9077Z" fill="#2B3745"/>
<path d="M30.0312 23.1028H5.96875C5.36469 23.1028 4.875 23.5925 4.875 24.1965C4.875 24.8006 5.36469 25.2903 5.96875 25.2903H30.0312C30.6353 25.2903 31.125 24.8006 31.125 24.1965C31.125 23.5925 30.6353 23.1028 30.0312 23.1028Z" fill="#2B3745"/>
</svg>
