<svg width="80" height="80" viewBox="0 0 80 80" fill="none" xmlns="http://www.w3.org/2000/svg">
<mask id="path-1-inside-1_96_298" fill="white">
<path d="M0 0.999999C0 0.447714 0.447715 0 1 0H60C71.0457 0 80 8.95431 80 20V79C80 79.5523 79.5523 80 79 80H20C8.95431 80 0 71.0457 0 60V0.999999Z"/>
</mask>
<path d="M0 0.999999C0 0.447714 0.447715 0 1 0H60C71.0457 0 80 8.95431 80 20V79C80 79.5523 79.5523 80 79 80H20C8.95431 80 0 71.0457 0 60V0.999999Z" fill="#2B3745" stroke="url(#paint0_linear_96_298)" stroke-width="4" mask="url(#path-1-inside-1_96_298)"/>
<defs>
<linearGradient id="paint0_linear_96_298" x1="0" y1="0" x2="58.5649" y2="93.4354" gradientUnits="userSpaceOnUse">
<stop stop-color="#F5F5F5"/>
<stop offset="1" stop-color="#AE8E73"/>
</linearGradient>
</defs>
</svg>
