<svg width="80" height="80" viewBox="0 0 80 80" fill="none" xmlns="http://www.w3.org/2000/svg">
<mask id="path-1-inside-1_96_308" fill="white">
<path d="M0 20C0 8.95431 8.95431 0 20 0H79C79.5523 0 80 0.447715 80 1V60C80 71.0457 71.0457 80 60 80H0.999999C0.447714 80 0 79.5523 0 79V20Z"/>
</mask>
<path d="M0 20C0 8.95431 8.95431 0 20 0H79C79.5523 0 80 0.447715 80 1V60C80 71.0457 71.0457 80 60 80H0.999999C0.447714 80 0 79.5523 0 79V20Z" fill="#2B3745" stroke="url(#paint0_linear_96_308)" stroke-width="4" mask="url(#path-1-inside-1_96_308)"/>
<defs>
<linearGradient id="paint0_linear_96_308" x1="81.5934" y1="-2.66803" x2="9.6539" y2="57.134" gradientUnits="userSpaceOnUse">
<stop stop-color="#F5F5F5"/>
<stop offset="1" stop-color="#AE8E73"/>
</linearGradient>
</defs>
</svg>
