<svg width="36" height="35" viewBox="0 0 36 35" fill="none" xmlns="http://www.w3.org/2000/svg">
<path d="M30.9472 3.99502C30.8529 3.91349 30.7381 3.85931 30.6152 3.83835C30.4923 3.81738 30.366 3.83043 30.25 3.87607L2.54253 14.7192C2.26008 14.8289 2.02091 15.0274 1.86109 15.2848C1.70126 15.5422 1.62944 15.8445 1.65644 16.1463C1.68344 16.4481 1.8078 16.7329 2.01078 16.9579C2.21376 17.1828 2.48436 17.3357 2.78179 17.3935L10.4025 18.8892V27.3438C10.4024 27.6709 10.5002 27.9906 10.6831 28.2617C10.8661 28.5329 11.1259 28.7431 11.4292 28.8655C11.6244 28.9438 11.8328 28.9842 12.0431 28.9845C12.2633 28.984 12.4811 28.9392 12.6835 28.8527C12.886 28.7663 13.069 28.64 13.2216 28.4813L17.0498 24.5165L22.9287 29.6722C23.2267 29.935 23.61 30.0808 24.0074 30.0823C24.1809 30.0816 24.3533 30.0544 24.5187 30.0017C24.7894 29.916 25.0328 29.7608 25.2247 29.5516C25.4167 29.3424 25.5504 29.0865 25.6125 28.8095L31.166 4.66494C31.1938 4.54393 31.1881 4.41764 31.1496 4.29962C31.111 4.18159 31.0411 4.07629 30.9472 3.99502ZM2.74624 16.0481C2.73822 15.982 2.75312 15.9151 2.78845 15.8586C2.82378 15.8022 2.8774 15.7595 2.94038 15.7378L26.8183 6.39306L10.8222 17.8569L2.9937 16.3202C2.92735 16.3105 2.86642 16.2781 2.82129 16.2285C2.77617 16.1788 2.74965 16.1151 2.74624 16.0481ZM12.4355 27.7212C12.3599 27.7991 12.2628 27.8527 12.1566 27.8752C12.0504 27.8978 11.94 27.8882 11.8392 27.8477C11.7385 27.8073 11.6521 27.7377 11.591 27.648C11.5299 27.5583 11.4969 27.4524 11.4962 27.3438V19.6466L16.224 23.7892L12.4355 27.7212ZM24.546 28.5606C24.5249 28.6535 24.4799 28.7392 24.4154 28.8093C24.351 28.8794 24.2694 28.9314 24.1786 28.9603C24.0879 28.9892 23.9912 28.9938 23.8981 28.9739C23.805 28.9539 23.7187 28.9099 23.6478 28.8464L11.8285 18.4817L29.8343 5.57822L24.546 28.5606Z" fill="url(#paint0_linear_141_98)"/>
<defs>
<linearGradient id="paint0_linear_141_98" x1="31.7716" y1="2.95304" x2="7.81282" y2="25.3568" gradientUnits="userSpaceOnUse">
<stop stop-color="#F5F5F5"/>
<stop offset="1" stop-color="#AE8E73"/>
</linearGradient>
</defs>
</svg>
