<svg width="36" height="35" viewBox="0 0 36 35" fill="none" xmlns="http://www.w3.org/2000/svg">
<path d="M25.4128 20.2918L21.0378 18.1043C20.9517 18.0614 20.8558 18.042 20.7598 18.048C20.6637 18.054 20.571 18.0852 20.4909 18.1385L18.2159 19.6561C16.9654 19.0563 15.9569 18.0478 15.3571 16.7973L16.8747 14.5223C16.928 14.4422 16.9592 14.3494 16.9652 14.2534C16.9712 14.1574 16.9518 14.0615 16.9089 13.9754L14.7214 9.60039C14.676 9.50907 14.606 9.43226 14.5193 9.37862C14.4325 9.32499 14.3325 9.29667 14.2306 9.29688C12.9252 9.29688 11.6733 9.81543 10.7503 10.7385C9.82725 11.6615 9.30869 12.9134 9.30869 14.2188C9.31195 17.2636 10.523 20.1828 12.676 22.3358C14.829 24.4889 17.7482 25.6999 20.7931 25.7031C22.0984 25.7031 23.3503 25.1846 24.2734 24.2615C25.1964 23.3385 25.7149 22.0866 25.7149 20.7812C25.715 20.6797 25.6868 20.58 25.6334 20.4936C25.58 20.4071 25.5037 20.3373 25.4128 20.2918ZM20.7931 24.6094C18.0382 24.6065 15.397 23.5108 13.449 21.5628C11.501 19.6148 10.4053 16.9736 10.4024 14.2188C10.4023 13.2606 10.7614 12.3373 11.4089 11.6311C12.0564 10.9248 12.9452 10.4871 13.8997 10.4043L15.7864 14.1791L14.2825 16.4404C14.2324 16.515 14.2014 16.6009 14.1924 16.6903C14.1833 16.7797 14.1964 16.87 14.2306 16.9531C14.9572 18.6805 16.3313 20.0547 18.0587 20.7812C18.1419 20.8158 18.2324 20.8293 18.3221 20.8205C18.4118 20.8117 18.4979 20.7808 18.5728 20.7307L20.8341 19.2268L24.6089 21.1135C24.5257 22.068 24.0877 22.9566 23.3812 23.6039C22.6747 24.2511 21.7512 24.6099 20.7931 24.6094ZM17.5118 3.82813C15.1317 3.82768 12.7926 4.44862 10.7261 5.62952C8.65953 6.81041 6.93707 8.51036 5.72908 10.5612C4.52109 12.612 3.86943 14.9427 3.83855 17.3226C3.80768 19.7026 4.39865 22.0494 5.55303 24.1309L3.92608 29.0104C3.82967 29.2994 3.81568 29.6096 3.88567 29.9062C3.95566 30.2028 4.10687 30.474 4.32234 30.6895C4.53781 30.905 4.80903 31.0562 5.10561 31.1261C5.40219 31.1961 5.7124 31.1821 6.00147 31.0857L10.881 29.4588C12.7062 30.4702 14.7388 31.0503 16.8229 31.1547C18.907 31.2592 20.9874 30.8852 22.9046 30.0614C24.8219 29.2376 26.5251 27.9858 27.8838 26.4021C29.2425 24.8183 30.2207 22.9445 30.7433 20.9243C31.266 18.9041 31.3193 16.791 30.8991 14.747C30.4789 12.703 29.5964 10.7823 28.3192 9.13211C27.042 7.48188 25.404 6.14591 23.5307 5.22655C21.6574 4.30718 19.5986 3.82883 17.5118 3.82813ZM17.5118 30.0781C15.3003 30.0788 13.1278 29.4964 11.2132 28.3896C11.13 28.3417 11.0358 28.3163 10.9397 28.3158C10.8807 28.316 10.8221 28.3257 10.7661 28.3445L5.65557 30.048C5.55921 30.0802 5.45581 30.0848 5.35695 30.0615C5.25809 30.0382 5.16768 29.9878 5.09586 29.916C5.02404 29.8441 4.97363 29.7537 4.9503 29.6549C4.92697 29.556 4.93164 29.4526 4.96377 29.3563L6.66729 24.2457C6.69186 24.1722 6.70054 24.0944 6.69277 24.0173C6.68499 23.9402 6.66092 23.8657 6.62217 23.7986C5.23544 21.4016 4.67851 18.6139 5.0378 15.8681C5.39709 13.1222 6.65251 10.5717 8.60929 8.61218C10.5661 6.65264 13.1148 5.39364 15.8602 5.03049C18.6055 4.66735 21.394 5.22035 23.7929 6.60371C26.1919 7.98708 28.0673 10.1235 29.1282 12.6815C30.189 15.2395 30.3761 18.076 29.6603 20.7512C28.9445 23.4263 27.3659 25.7905 25.1693 27.4769C22.9728 29.1633 20.2811 30.0776 17.5118 30.0781Z" fill="url(#paint0_linear_141_100)"/>
<defs>
<linearGradient id="paint0_linear_141_100" x1="31.7237" y1="2.9162" x2="7.13533" y2="23.3545" gradientUnits="userSpaceOnUse">
<stop stop-color="#F5F5F5"/>
<stop offset="1" stop-color="#AE8E73"/>
</linearGradient>
</defs>
</svg>
